<svg width="90" height="90" viewBox="0 0 90 90" fill="none" xmlns="http://www.w3.org/2000/svg">
<mask id="mask0_2875_95" style="mask-type:alpha" maskUnits="userSpaceOnUse" x="0" y="0" width="90" height="90">
<rect width="90" height="90" fill="#D9D9D9"/>
</mask>
<g mask="url(#mask0_2875_95)">
<path d="M34.3038 42.0068C34.3038 43.2507 39.3457 44.2594 45.5667 44.2594C51.7876 44.2594 56.8295 43.2507 56.8295 42.0068" stroke="white" stroke-width="2" stroke-linecap="round" stroke-linejoin="round"/>
<path d="M46.7444 74.5032C57.0752 73.8607 65.4071 65.3246 65.8229 54.9783C66.0734 48.7375 63.5173 43.0886 59.3141 39.1884C58.152 38.1087 56.7367 37.3489 55.1908 36.989C53.2185 36.5332 49.9535 36 45.4411 36C40.9287 36 37.6423 36.5358 35.6726 36.9944C34.2653 37.3223 32.9407 37.9567 31.8612 38.9218C27.6766 42.6567 25.0433 48.0897 25.0433 54.1413C25.0433 65.8418 34.889 75.2416 46.7444 74.5032Z" stroke="white" stroke-width="2" stroke-linecap="round" stroke-linejoin="round"/>
<path d="M55.3267 18.4644C51.9693 16.6221 48.102 15.6018 44.0529 15.6894C40.1604 15.7736 36.4153 16.8454 33.1451 18.7328" stroke="white" stroke-width="2" stroke-linecap="round" stroke-linejoin="round"/>
<path d="M53.4214 23.3243C50.6686 21.7595 47.4788 20.8887 44.1373 20.9603C41.0625 21.0251 38.1024 21.8595 35.5033 23.3332" stroke="white" stroke-width="2" stroke-linecap="round" stroke-linejoin="round"/>
<path d="M50.9729 28.2082C49.056 27.1187 46.8348 26.5123 44.5081 26.5621C42.3671 26.6073 40.3059 27.1883 38.496 28.2144" stroke="white" stroke-width="2" stroke-linecap="round" stroke-linejoin="round"/>
<ellipse cx="45.5666" cy="42.1319" rx="13.0148" ry="4.37999" fill="white"/>
<ellipse cx="41.1866" cy="42.0068" rx="3.12856" ry="1.00114" fill="white"/>
<ellipse cx="49.6964" cy="42.0068" rx="3.12856" ry="1.00114" fill="white"/>
</g>
</svg>
