<svg width="94" height="94" viewBox="0 0 94 94" fill="none" xmlns="http://www.w3.org/2000/svg">
<mask id="mask0_2471_362" style="mask-type:alpha" maskUnits="userSpaceOnUse" x="0" y="0" width="94" height="94">
<rect width="94" height="94" fill="#D9D9D9"/>
</mask>
<g mask="url(#mask0_2471_362)">
<path d="M46.6522 56.1563C45.8833 56.1563 45.111 56.1093 44.3386 56.0136C35.0247 54.8622 28 46.9363 28 37.5773C28 27.3346 36.372 19 46.6627 19C56.9551 19 65.3289 27.3329 65.3289 37.5773C65.3289 42.9012 63.0257 47.9782 59.0101 51.5072C55.5834 54.5179 51.1781 56.1563 46.6522 56.1563ZM46.6627 20.7515C37.3418 20.7515 29.7597 28.2982 29.7597 37.5755C29.7597 46.051 36.1204 53.229 44.5553 54.2726C49.3712 54.8709 54.2134 53.3838 57.8446 50.1923C61.4827 46.9955 63.5692 42.3968 63.5692 37.5755C63.5692 28.2999 55.9853 20.7515 46.6627 20.7515Z" fill="white"/>
<path d="M60.5743 75.5536H32.5086C30.237 75.5536 28.3899 73.8665 28.3899 71.7915C28.3899 69.854 30.0045 68.2521 32.0683 68.0521C32.7917 64.9927 35.7746 62.7716 39.3202 62.7716H43.0859L43.7202 56.2737L45.4729 56.4424L44.6848 64.5231H39.3202C36.4351 64.5231 33.9608 66.4902 33.6882 69L33.6025 69.7827H32.5086C31.2085 69.7827 30.1496 70.6836 30.1496 71.7915C30.1496 72.8995 31.2068 73.8004 32.5086 73.8004H60.5743C61.8744 73.8004 62.9334 72.8995 62.9334 71.7915C62.9334 70.6836 61.8762 69.7827 60.5743 69.7827H59.4594L59.3738 69C59.1012 66.4885 56.6268 64.5231 53.7418 64.5231H48.3754L47.5873 56.4424L49.34 56.2737L49.9743 62.7716H53.7436C57.2891 62.7716 60.2703 64.9927 60.9955 68.0503C63.0697 68.2434 64.6948 69.847 64.6948 71.7915C64.6948 73.8648 62.846 75.5536 60.5743 75.5536Z" fill="white"/>
<path d="M57.493 37.9501C60.6349 41.7556 58.4174 47.2153 55.3716 46.4117C53.6469 45.9578 53.2746 44.4881 52.8797 42.9314C52.4865 41.3834 52.013 39.512 49.8566 39.2702C50.145 38.5693 50.1747 37.7623 49.9213 37.0283C52.5704 35.336 55.964 36.0995 57.493 37.9501ZM48.2682 39.465C47.1935 40.5155 45.3657 40.0077 44.983 38.5467C44.6108 37.1048 45.9616 35.7586 47.4295 36.1795C48.8693 36.5795 49.3586 38.4006 48.2682 39.465ZM41.4951 28.9824C43.2356 24.3768 49.0948 23.5454 49.9213 26.5787C50.3879 28.2919 49.2957 29.3476 48.1372 30.4677C46.9873 31.5791 45.5964 32.9253 46.4614 34.9046C45.6733 35.009 44.9568 35.416 44.4745 35.9691C41.6804 34.5324 40.6476 31.226 41.4951 28.9824ZM35.3878 41.1921C36.0151 40.5642 36.6931 40.352 37.4096 40.352C39.6166 40.352 42.5086 42.5053 44.3592 40.0111C44.8292 40.6147 45.5195 41.0408 46.2796 41.1904C46.4299 44.3176 44.0674 46.8622 41.6908 47.2518C36.8085 48.0571 33.1668 43.4201 35.3878 41.1921Z" fill="white"/>
<path d="M40.5656 47.6092C37.9165 47.6092 35.7584 46.1082 34.8811 44.4159C34.2224 43.1445 34.3412 41.8696 35.2009 41.0086C35.8178 40.3912 36.5395 40.0903 37.4097 40.0903C38.1314 40.0903 38.9212 40.3077 39.6831 40.5199C41.3781 40.9878 42.9788 41.4295 44.1461 39.8572L44.354 39.5789L44.5672 39.8538C45.0041 40.4138 45.6297 40.7982 46.3304 40.9356L46.5331 40.9756L46.5436 41.1808C46.7008 44.4698 44.1845 47.1118 41.7329 47.5153C41.3362 47.5796 40.9465 47.6092 40.5656 47.6092ZM35.5766 41.3791C34.8759 42.0818 34.7938 43.101 35.3512 44.1759C36.2669 45.9412 38.7238 47.477 41.6472 46.9952C43.8245 46.637 46.0595 44.3202 46.0228 41.4035C45.3885 41.2382 44.8136 40.8991 44.3663 40.426C42.9998 41.9826 41.1685 41.4765 39.5433 41.0278C38.7814 40.8173 38.0597 40.6173 37.4114 40.6173C36.6775 40.6173 36.0956 40.8591 35.5766 41.3791ZM55.964 46.7535C55.7456 46.7535 55.5254 46.7239 55.3035 46.6665C53.4285 46.1743 53.0196 44.5585 52.6229 42.9966C52.2368 41.4765 51.7999 39.7529 49.827 39.532L49.4793 39.4937L49.6121 39.172C49.8777 38.5267 49.8987 37.7771 49.6715 37.1144L49.6051 36.9196L49.7798 36.8083C52.5653 35.029 56.1231 35.8778 57.6975 37.7858C59.7403 40.2607 59.611 43.4106 58.4279 45.242C57.7954 46.2195 56.9077 46.7535 55.964 46.7535ZM50.2115 39.0589C52.2717 39.4624 52.7487 41.3426 53.1349 42.8662C53.5264 44.4124 53.8654 45.7447 55.4398 46.1586C56.3992 46.4126 57.327 45.9743 57.9841 44.9568C59.064 43.2836 59.1723 40.3982 57.2904 38.118C55.8906 36.4222 52.7575 35.6551 50.2359 37.144C50.4072 37.7736 50.4002 38.438 50.2115 39.0589ZM46.9088 40.2851C46.7078 40.2851 46.5051 40.2573 46.3024 40.2034C45.5213 39.9877 44.9324 39.3946 44.7262 38.6137C44.5253 37.8345 44.7542 37.0326 45.3378 36.4691C45.918 35.9091 46.7271 35.7056 47.5012 35.9282C48.2718 36.1421 48.8519 36.7335 49.0529 37.5127C49.2539 38.2901 49.0302 39.092 48.4518 39.6555C48.0307 40.0659 47.4802 40.2851 46.9088 40.2851ZM46.8808 36.3648C46.4475 36.3648 46.0316 36.5317 45.7065 36.8448C45.2592 37.2761 45.0845 37.8884 45.2382 38.4815C45.3955 39.078 45.8446 39.532 46.444 39.6972C47.0364 39.859 47.6497 39.7042 48.0831 39.2781C48.5252 38.8467 48.6964 38.2362 48.5427 37.6414C48.3889 37.0483 47.9468 36.5961 47.3579 36.4326C47.1989 36.3874 47.0399 36.3648 46.8808 36.3648ZM44.5393 36.2987L44.354 36.203C41.4131 34.6933 40.3734 31.2026 41.2471 28.8911C42.3794 25.8926 45.1893 24.4333 47.3736 24.5307C48.8083 24.5985 49.8567 25.3377 50.1748 26.51C50.6833 28.3728 49.4828 29.5329 48.3207 30.6564C47.1919 31.7487 45.911 32.9871 46.7043 34.7994L46.8441 35.1194L46.4981 35.1664C45.7992 35.2603 45.1351 35.6151 44.6756 36.1421L44.5393 36.2987ZM47.1517 25.0525C45.1876 25.0525 42.7516 26.4039 41.7416 29.0772C40.9657 31.1313 41.8639 34.215 44.4204 35.643C44.8748 35.1838 45.4671 34.8551 46.0997 34.7055C45.4217 32.7279 46.8197 31.3765 47.952 30.2808C49.1001 29.1711 50.0909 28.2128 49.6645 26.6491C49.4041 25.6943 48.5601 25.1151 47.3474 25.0577C47.2845 25.0542 47.2181 25.0525 47.1517 25.0525Z" fill="white"/>
<path d="M46.6712 51.0987C45.8167 51.0987 44.9535 51.0204 44.0885 50.8639L44.4048 49.1402C47.1168 49.6342 49.8009 49.2394 52.1652 47.9993L52.9865 49.5507C51.0258 50.5751 48.88 51.0987 46.6712 51.0987Z" fill="white"/>
<path d="M57.9299 34.0056C57.0789 31.3515 55.2948 29.0713 52.906 27.586L53.8391 26.0989C56.5826 27.8034 58.6306 30.421 59.6092 33.4717L57.9299 34.0056Z" fill="white"/>
<path d="M34.8448 37.3171L33.0851 37.2788C33.155 34.0803 34.3712 31 36.5118 28.6033L37.8276 29.7669C35.9649 31.854 34.9042 34.5342 34.8448 37.3171Z" fill="white"/>
<path d="M60.506 74.4467H32.5766C31.1105 74.4467 29.9222 73.264 29.9222 71.8048V71.7648C29.9222 70.3055 31.1105 69.1228 32.5766 69.1228H60.506C61.9721 69.1228 63.1603 70.3055 63.1603 71.7648V71.8048C63.1621 73.264 61.9721 74.4467 60.506 74.4467Z" fill="white"/>
<path d="M60.4868 74.7103H32.5994C30.9777 74.7103 29.6602 73.3972 29.6602 71.7848C29.6602 70.1708 30.9795 68.8594 32.5994 68.8594H60.4868C62.1084 68.8594 63.426 70.1725 63.426 71.7848C63.426 73.3989 62.1067 74.7103 60.4868 74.7103ZM32.5976 69.3846C31.2678 69.3846 30.1861 70.4612 30.1861 71.7848C30.1861 73.1084 31.2678 74.185 32.5976 74.185H60.4851C61.8149 74.185 62.8965 73.1084 62.8965 71.7848C62.8965 70.4612 61.8149 69.3846 60.4851 69.3846H32.5976Z" fill="white"/>
</g>
</svg>
