<svg width="90" height="90" viewBox="0 0 90 90" fill="none" xmlns="http://www.w3.org/2000/svg">
<g clip-path="url(#clip0_963_526)">
<mask id="mask0_963_526" style="mask-type:luminance" maskUnits="userSpaceOnUse" x="0" y="0" width="90" height="90">
<path d="M90 0H0V90H90V0Z" fill="white"/>
</mask>
<g mask="url(#mask0_963_526)">
<mask id="mask1_963_526" style="mask-type:alpha" maskUnits="userSpaceOnUse" x="0" y="0" width="90" height="90">
<path d="M90 0H0V90H90V0Z" fill="white"/>
</mask>
<g mask="url(#mask1_963_526)">
<mask id="mask2_963_526" style="mask-type:luminance" maskUnits="userSpaceOnUse" x="17" y="19" width="50" height="52">
<path d="M67 19H17V71H67V19Z" fill="white"/>
</mask>
<g mask="url(#mask2_963_526)">
<path d="M37.6297 29.2535C33.1214 30.4455 28.7489 31.5923 24.39 32.7888C24.1182 32.8656 23.801 33.3261 23.7738 33.6286C23.6923 34.5633 23.7376 35.5069 23.7421 36.446C23.7421 37.0827 23.6968 37.7735 22.8767 37.7509C22.0702 37.7283 22.0475 37.0285 22.0475 36.4009C22.052 35.1954 22.0837 33.9944 22.0384 32.7888C22.0067 31.9129 22.3919 31.5201 23.2256 31.3034C26.7643 30.3868 30.2849 29.398 33.8237 28.4815C34.6574 28.2647 34.9927 27.9035 34.9519 27.0141C34.8794 25.4383 34.9247 23.8535 34.9338 22.2732C34.9519 19.8261 36.2976 18.7515 39.0072 19.0359C46.9682 19.8803 54.9791 19.7493 62.9537 19.0224C65.6542 18.7786 66.9727 19.8577 66.9773 22.35C66.9818 33.1094 66.9773 43.8688 66.9773 54.6237C66.9773 55.328 67.0951 56.2356 66.0348 56.1994C65.0788 56.1678 65.183 55.2964 65.183 54.6372C65.1739 44.519 65.1785 34.4007 65.1739 24.2825C65.1739 23.7181 65.1739 23.1537 65.1739 22.5893C65.1558 20.9187 64.9202 20.6794 63.2799 20.6794C58.8622 20.6794 54.4444 20.6794 50.0312 20.6794C46.1798 20.6794 42.3239 20.6794 38.4725 20.6794C37.4847 20.6794 36.6828 21.4786 36.6737 22.4629C36.6601 24.1109 36.6737 25.7634 36.6737 27.583C37.2491 27.4836 37.7068 27.4159 38.1599 27.3256C39.0072 27.1631 39.492 27.4611 39.492 28.3596C39.492 33.9266 39.5056 39.4937 39.4603 45.0608C39.4467 46.632 38.6175 47.8105 37.3669 48.7586C37.0181 49.025 36.7054 49.5804 36.7009 50.0093C36.6601 55.8382 36.6692 61.6717 36.6737 67.5006C36.6737 68.941 37.0316 69.2886 38.4997 69.2886C46.8051 69.2931 55.1105 69.2931 63.4159 69.2886C64.8386 69.2886 65.1649 68.9726 65.1739 67.5684C65.192 65.1212 65.1784 62.6786 65.183 60.2314C65.183 59.8928 65.0878 59.5045 65.2192 59.229C65.2192 59.229 65.2192 59.22 65.2238 59.2155C65.5409 58.5744 66.4607 58.5202 66.8867 59.0936C66.9138 59.1297 66.9365 59.1658 66.9637 59.1974C67.0362 59.2968 66.9818 59.4909 66.9818 59.6399C66.9818 62.349 66.9954 65.058 66.9773 67.767C66.9637 69.5415 65.5183 70.9772 63.7376 70.9772C55.2102 70.9908 46.6828 70.9908 38.1553 70.9772C36.3837 70.9772 34.9428 69.546 34.9383 67.7806C34.9247 62.209 34.9338 56.6374 34.9338 51.0658C34.9338 50.6188 34.9338 50.1763 34.9338 49.6932C34.3765 49.5713 33.9007 49.4991 33.4431 49.3681C31.1685 48.7135 29.859 46.8487 29.9632 44.4422C30.0538 42.3066 31.6624 40.4103 33.8599 40.0807C34.748 39.9497 34.9881 39.6427 34.9519 38.8074C34.893 37.5387 34.9383 36.2654 34.9383 34.8296C34.313 34.9606 33.9143 35.0193 33.4793 35.1592C31.6442 35.7462 29.7865 36.279 27.8835 36.6221C26.8504 36.8118 26.6012 37.2001 26.6103 38.1076C26.6556 41.6429 26.6646 45.1782 26.6148 48.7135C26.5604 52.6596 22.6501 55.0029 19.3968 53.0886C17.6297 52.0456 16.7281 50.1086 17.077 48.0904C17.4032 46.2121 18.9755 44.6454 20.9283 44.2661C21.2591 44.2029 21.5899 44.1397 22.052 44.0494C22.052 42.9884 21.9705 41.9409 22.0883 40.9114C22.1381 40.469 22.5504 39.7782 22.8903 39.7149C23.6198 39.5795 23.7421 40.2522 23.7421 40.8618C23.7421 42.0673 23.7466 43.2683 23.7421 44.4738C23.733 45.9548 23.6152 46.0631 22.1109 45.9548C20.6429 45.8509 19.4739 46.5643 18.9709 47.8646C18.4952 49.0927 18.8758 50.5421 19.8817 51.3322C20.9283 52.1539 22.4734 52.1991 23.5881 51.4225C24.5486 50.7543 24.8386 49.788 24.8386 48.6683C24.8296 44.8711 24.8749 41.0695 24.8114 37.2723C24.7933 36.0532 25.2056 35.4979 26.4517 35.2225C29.2201 34.6129 31.9795 33.9537 34.6755 33.0823C36.1843 32.5947 36.651 32.7753 36.6601 34.1163C36.6782 36.2609 36.6782 38.4056 36.6601 40.5502C36.651 41.6925 36.3656 41.9138 35.2011 41.7964C33.3162 41.6068 31.7983 42.7446 31.6624 44.4467C31.5219 46.2212 32.7272 47.6479 34.458 47.7563C36.3293 47.8782 37.7068 46.6411 37.7204 44.6815C37.7566 39.7917 37.734 34.9019 37.734 30.0121C37.734 29.7908 37.6751 29.5741 37.6297 29.24V29.2535Z" fill="white"/>
<path d="M38.1055 54.037C38.1191 46.9077 43.8327 41.291 51.0461 41.3135C58.1372 41.3361 63.8191 47.0386 63.8146 54.1228C63.8101 61.2205 58.0375 66.9501 50.9057 66.9365C43.7874 66.9275 38.0919 61.1889 38.1055 54.037ZM50.9872 43.0112C44.8613 43.0022 39.8273 47.9507 39.8046 53.9964C39.782 60.1504 44.7797 65.2028 50.8876 65.2073C57.0226 65.2118 62.0973 60.182 62.0973 54.0912C62.0973 48.041 57.0634 43.0202 50.9872 43.0112Z" fill="white"/>
<path d="M50.9053 39.476C47.3665 39.4624 44.2447 37.2275 43.0938 33.8367C42.1105 30.9561 42.8763 27.7052 45.0331 25.5515C47.5614 23.0276 51.3357 22.3594 54.4984 23.8584C54.7023 23.9532 54.9877 24.0254 55.0738 24.1925C55.0965 24.2376 55.1191 24.2828 55.1418 24.3279C55.4091 24.9149 55.0195 25.6418 54.3715 25.6418C54.3217 25.6418 54.2718 25.6418 54.222 25.6283C53.13 25.4161 52.0743 24.8562 50.9823 24.8065C48.1595 24.6756 45.6447 26.5855 44.7612 29.3035C43.8776 32.0306 44.8881 34.9384 47.3167 36.6586C49.4418 38.1666 52.6497 38.1034 54.7476 36.5186C57.1219 34.7261 58.0235 31.8184 57.0448 29.0868C56.9044 28.6985 56.6144 28.3373 56.5781 27.949C56.5781 27.9265 56.5781 27.9084 56.5781 27.8858C56.56 27.2086 57.3076 26.7209 57.8921 27.0641C57.9601 27.1047 58.0145 27.1499 58.0507 27.2086C59.3013 29.15 59.5233 31.2857 58.9071 33.489C57.9012 37.0649 54.6343 39.4895 50.9143 39.4805L50.9053 39.476Z" fill="white"/>
<path d="M50.937 35.2001C48.744 35.2001 46.9769 33.4618 46.9678 31.2901C46.9587 29.1093 48.7032 27.3574 50.9007 27.3439C53.1346 27.3258 54.9651 29.1273 54.9424 31.3081C54.9198 33.4618 53.1346 35.1956 50.937 35.1956V35.2001ZM53.1255 31.2946C53.1391 30.0439 52.1876 29.0506 50.9687 29.0325C49.7544 29.0145 48.7712 29.9987 48.7576 31.2449C48.744 32.5227 49.6592 33.4708 50.9189 33.4799C52.1966 33.4889 53.1119 32.5814 53.1255 31.2946Z" fill="white"/>
<path d="M64.227 66.0334C64.227 67.275 63.1622 68.327 61.9117 68.3135C60.6702 68.2999 59.619 67.2163 59.6552 65.9792C59.6869 64.7872 60.7155 63.7668 61.9071 63.7488C63.1351 63.7307 64.227 64.8053 64.227 66.0334Z" fill="white"/>
<path d="M42.2291 65.9791C42.2654 67.2117 41.2187 68.2953 39.9727 68.3134C38.772 68.3315 37.7479 67.3607 37.68 66.1462C37.612 64.9181 38.6315 63.8028 39.8639 63.7532C41.0873 63.7035 42.1929 64.742 42.2291 65.9836V65.9791Z" fill="white"/>
<path d="M64.2319 23.9442C64.2364 25.1678 63.158 26.2333 61.921 26.2243C60.7339 26.2152 59.6918 25.1994 59.6555 24.0164C59.6147 22.7793 60.6478 21.7092 61.9029 21.6912C63.158 21.6731 64.2273 22.7025 64.2319 23.9397V23.9442Z" fill="white"/>
<path d="M39.9585 26.224C38.717 26.224 37.6477 25.1404 37.6794 23.9033C37.7066 22.6842 38.7215 21.6954 39.9449 21.6909C41.2 21.6909 42.2693 22.761 42.2331 23.9981C42.2014 25.1901 41.1502 26.2195 39.9585 26.224Z" fill="white"/>
<path d="M50.9738 44.9253C56.1755 44.9343 60.2217 48.9979 60.199 54.1902C60.1764 59.2561 56.0305 63.3423 50.924 63.3377C45.7858 63.3332 41.6897 59.1929 41.7169 54.0277C41.7441 48.9031 45.7994 44.9163 50.9738 44.9253Z" fill="white"/>
</g>
</g>
</g>
</g>
<defs>
<clipPath id="clip0_963_526">
<rect width="90" height="90" fill="white"/>
</clipPath>
</defs>
</svg>
