<svg width="90" height="90" viewBox="0 0 90 90" fill="none" xmlns="http://www.w3.org/2000/svg">
<path d="M46.4412 23.0898L43.787 26.9053C43.6768 27.0638 43.6177 27.2521 43.6177 27.4451V31.0672C43.6177 31.3762 43.4666 31.6658 43.2131 31.8424L41.282 33.1884C40.94 33.4267 40.7946 33.861 40.9241 34.2573L42.0823 37.7996C42.1614 38.0416 42.1394 38.3053 42.0215 38.531L40.379 41.6732C40.2506 41.9189 40.2365 42.2085 40.3405 42.4655L41.5255 45.3933C41.622 45.6316 41.6172 45.899 41.5122 46.1337L40.3592 48.7109C40.2436 48.9694 40.25 49.2661 40.3766 49.5194L42.0107 52.7876C42.1346 53.0353 42.1435 53.3249 42.0353 53.5798L40.9476 56.1391C40.8008 56.4844 40.8722 56.8839 41.1297 57.1569L43.3603 59.5227C43.5256 59.6981 43.6177 59.93 43.6177 60.171V63.5409C43.6177 63.7977 43.7223 64.0435 43.9073 64.2215L46 66.2369" stroke="white" stroke-width="1.84314" stroke-linecap="round"/>
<path d="M40.9706 23.0898L38.3162 26.9053C38.2061 27.0638 38.1471 27.2521 38.1471 27.4451V31.0672C38.1471 31.3762 37.996 31.6658 37.7424 31.8424L35.8114 33.1884C35.4694 33.4267 35.3239 33.861 35.4535 34.2573L36.6115 37.7996C36.6907 38.0416 36.6688 38.3053 36.5508 38.531L34.9083 41.6732C34.7799 41.9189 34.7658 42.2085 34.8698 42.4655L36.0548 45.3933C36.1514 45.6316 36.1465 45.899 36.0415 46.1337L34.8886 48.7109C34.7729 48.9694 34.7793 49.2661 34.9059 49.5194L36.5401 52.7876C36.6639 53.0353 36.6729 53.3249 36.5645 53.5798L35.4768 56.1391C35.3301 56.4844 35.4016 56.8839 35.659 57.1569L37.8896 59.5227C38.0549 59.6981 38.1471 59.93 38.1471 60.171V63.5409C38.1471 63.7977 38.2515 64.0435 38.4365 64.2215L40.5294 66.2369" stroke="white" stroke-width="1.84314" stroke-linecap="round"/>
<path d="M59.4118 44.6176C59.4118 50.7589 58.5416 56.281 57.161 60.2367C56.4692 62.2187 55.6658 63.7597 54.8174 64.7879C53.9641 65.8219 53.1566 66.2352 52.4413 66.2352C51.7259 66.2352 50.9184 65.8219 50.0651 64.7879C49.2167 63.7597 48.4132 62.2187 47.7214 60.2367C46.3408 56.281 45.4707 50.7589 45.4707 44.6176C45.4707 38.4764 46.3408 32.9542 47.7214 28.9985C48.4132 27.0165 49.2167 25.4756 50.0651 24.4474C50.9184 23.4133 51.7259 23 52.4413 23C53.1566 23 53.9641 23.4133 54.8174 24.4474C55.6658 25.4756 56.4692 27.0165 57.161 28.9985C58.5416 32.9542 59.4118 38.4764 59.4118 44.6176Z" stroke="white" stroke-width="1.84314"/>
<path d="M56.3229 44.7013C56.3229 48.986 55.8244 52.8354 55.0355 55.5884C54.6396 56.9702 54.1832 58.0307 53.7111 58.7276C53.2206 59.4518 52.8364 59.6131 52.617 59.6131C52.3977 59.6131 52.0134 59.4518 51.5229 58.7276C51.0508 58.0307 50.5943 56.9702 50.1984 55.5884C49.4097 52.8354 48.9111 48.986 48.9111 44.7013C48.9111 40.4167 49.4097 36.5672 50.1984 33.8143C50.5943 32.4325 51.0508 31.3719 51.5229 30.6751C52.0134 29.9509 52.3977 29.7896 52.617 29.7896C52.8364 29.7896 53.2206 29.9509 53.7111 30.6751C54.1832 31.3719 54.6396 32.4325 55.0355 33.8143C55.8244 36.5672 56.3229 40.4167 56.3229 44.7013Z" stroke="white" stroke-width="1.65882"/>
<path d="M52.0858 23.0005C47.272 23.0005 38.0876 23.0005 37.0244 23.0005C35.6955 23.0005 31 27.7847 31 43.7318C31 59.679 35.9613 66.2351 37.0244 66.2351C37.875 66.2351 48.4238 66.2357 52.7059 66.2357" stroke="white" stroke-width="1.84314" stroke-linecap="round"/>
<path d="M37.8613 31.6387L38.3613 27.1387L40.8613 23.1387H46.3613L43.3613 27.6387V31.1387L40.8613 34.1387L41.8613 38.1387L40.3613 42.6387L41.3613 45.6387L40.3613 49.1387L41.8613 53.1387L40.8613 56.6387L43.8613 59.6387L43.3613 63.8887L45.8613 66.1387H39.3613L38.3613 63.8887L37.8613 59.6387L35.3613 56.6387L36.3613 52.6387L34.8613 48.6387L35.8613 45.6387L34.8613 41.6387L36.3613 38.1387L35.3613 33.6387L37.8613 31.6387Z" fill="white"/>
</svg>
