<svg width="94" height="94" viewBox="0 0 94 94" fill="none" xmlns="http://www.w3.org/2000/svg">
<mask id="mask0_441:295" style="mask-type:alpha" maskUnits="userSpaceOnUse" x="0" y="0" width="94" height="94">
<rect width="94" height="94" fill="white"/>
</mask>
<g mask="url(#mask0_441:295)">
<path d="M49.3951 71.9816C48.834 71.9816 48.3579 71.529 48.3069 70.9546C48.3069 70.9024 48.3069 70.8328 48.3069 70.7806C48.3239 61.3639 48.3069 51.9472 48.3239 42.5305C48.3239 39.6585 49.7691 37.5698 52.4045 36.5951C53.1866 36.2992 53.2886 36.1599 53.2886 35.3418C53.2886 30.9903 53.2886 27.2828 53.2886 22.9313C53.2886 21.9044 53.5437 21.0167 54.5638 21.0341C55.9411 21.0689 57.3353 21.0689 58.7125 21.0341C59.6646 21.0167 59.9367 21.9044 59.9367 22.8617C59.9367 27.2132 59.9367 30.9207 59.9367 35.2722C59.9367 36.1599 60.0387 36.3166 60.8548 36.6125C63.4392 37.5524 64.9184 39.6237 64.9184 42.4609C64.9354 51.9298 64.9184 61.3987 64.9354 70.8676C64.9354 70.885 64.9354 70.9024 64.9354 70.9198C64.9184 71.5116 64.4424 71.999 63.8473 71.999H49.3951V71.9816ZM54.9379 26.134C54.9379 26.3951 54.9379 26.5866 54.9379 26.7781C54.9379 29.7023 54.9379 32.6091 54.9379 35.5333C54.9379 36.8388 54.3258 37.6917 53.1356 38.1268C52.9656 38.179 52.7956 38.2486 52.6255 38.3009C51.3504 38.823 50.3472 39.7282 50.1772 41.1032C49.9221 43.1397 49.9561 45.2285 49.8711 47.3172C54.3938 47.3172 58.7805 47.3172 63.1842 47.3172C63.2012 47.2302 63.2182 47.1605 63.2182 47.0909C63.2182 45.4896 63.2692 43.8708 63.2012 42.2694C63.1332 40.1981 62.113 38.8579 60.2257 38.179C58.7635 37.6568 58.2194 36.8736 58.2194 35.2722C58.2194 32.4176 58.2194 29.563 58.2194 26.7084C58.2194 26.517 58.2194 26.3255 58.2194 26.0992C57.1312 26.134 56.0771 26.134 54.9379 26.134ZM63.2012 70.2758C63.2012 67.6997 63.2012 65.1758 63.2012 62.6693C58.7805 62.6693 54.3938 62.6693 50.0071 62.6693C50.0071 65.228 50.0071 67.7519 50.0071 70.2758C54.4278 70.2758 58.7975 70.2758 63.2012 70.2758ZM55.2269 24.9504H57.9474C58.1004 24.9504 58.2194 24.8286 58.2194 24.6719V23.0358C58.2194 22.8791 58.1004 22.7573 57.9474 22.7573H55.2269C55.0739 22.7573 54.9549 22.8791 54.9549 23.0358V24.6719C54.9549 24.8286 55.0739 24.9504 55.2269 24.9504Z" fill="white"/>
<path d="M31.0882 71.9826C30.5441 71.9826 30.068 71.5823 30.017 71.0253C30.017 70.9382 30 70.8512 30 70.7642C30.017 63.2099 30 55.6383 30 48.0841C30 45.2469 30.6801 42.6012 32.1593 40.1992C33.5535 37.9364 34.1826 35.4647 34.1656 32.7842C34.1486 29.2682 34.1656 26.3787 34.1656 22.8627C34.1656 21.6791 34.3357 21.0351 36.0869 21.0525L39.1984 21.0003C40.6606 20.9829 40.7796 21.7836 40.7796 22.7583C40.7796 26.3613 40.7967 29.3378 40.7796 32.9408C40.7626 35.4647 41.3577 37.8319 42.6669 39.9903C44.2652 42.6186 44.9623 45.4558 44.9623 48.5366C44.9283 55.9342 44.9453 63.3318 44.9623 70.7294C44.9623 70.8338 44.9623 70.9208 44.9453 71.0253C44.8943 71.5823 44.4182 72 43.8741 72H31.0882V71.9826ZM35.8319 26.1351C35.8319 28.4153 35.8149 30.6258 35.8319 32.8538C35.8659 35.8128 35.1348 38.5456 33.5875 41.0695C32.2783 43.2278 31.6663 45.5776 31.6663 48.1015C31.6663 55.3076 31.6663 62.5311 31.6663 69.7372C31.6663 69.9113 31.6663 70.0853 31.6663 70.2594C35.5769 70.2594 39.4194 70.2594 43.296 70.2594C43.296 70.0505 43.296 69.8765 43.296 69.7024C43.296 62.5311 43.296 55.3772 43.296 48.2059C43.296 45.6124 42.6669 43.193 41.3237 40.9824C39.8275 38.5456 39.1304 35.8825 39.1304 33.0105C39.1304 30.9043 39.1304 28.7982 39.1304 26.6921C39.1304 26.518 39.1304 26.3439 39.1304 26.1351C38.0082 26.1351 36.9541 26.1351 35.8319 26.1351ZM36.1209 24.9515H38.8244C38.9774 24.9515 39.0964 24.8296 39.0964 24.673V23.0368C39.0964 22.8801 38.9774 22.7583 38.8244 22.7583H36.1209C35.9679 22.7583 35.8489 22.8801 35.8489 23.0368V24.673C35.8489 24.8122 35.9679 24.9515 36.1209 24.9515Z" fill="white"/>
<path d="M37.4811 59.2415C35.5258 59.2415 33.8935 57.5705 33.9105 55.5862C33.9105 53.5845 35.5258 51.9309 37.4981 51.9309C39.4534 51.9309 41.0686 53.5845 41.0686 55.5862C41.0686 57.5705 39.4364 59.2415 37.4811 59.2415Z" fill="white"/>
<path d="M37.4811 49.6507C36.6479 49.6507 35.9338 48.937 35.9338 48.0667C35.9338 47.1964 36.6309 46.4828 37.4811 46.4828C38.3312 46.4828 39.0283 47.1964 39.0283 48.0667C39.0283 48.937 38.3142 49.6507 37.4811 49.6507ZM37.4811 64.237C36.6479 64.237 35.9338 63.5233 35.9338 62.653C35.9338 61.7827 36.6309 61.0691 37.4811 61.0691C38.3312 61.0691 39.0283 61.7827 39.0283 62.653C39.0283 63.5233 38.3142 64.237 37.4811 64.237Z" fill="white"/>
</g>
</svg>
