<svg width="90" height="90" viewBox="0 0 90 90" fill="none" xmlns="http://www.w3.org/2000/svg">
<path d="M25.2891 34.1007C25.3467 29.3332 27.7973 25.8948 32.2602 24.1728C35.1548 23.0575 38.0955 22.9766 41.1111 23.358C43.9884 23.722 46.8772 24.011 49.7602 24.3404C52.0263 24.6004 54.2866 24.8547 56.5469 25.1552C57.3368 25.2592 58.0461 25.2245 58.7495 24.7911C60.0584 23.9879 61.4134 23.2597 62.7339 22.4738C63.1721 22.208 63.4546 22.2138 63.8352 22.6183C65.3401 24.2421 65.9917 26.2416 66.3665 28.3393C66.6894 30.1596 66.8624 32.0088 66.551 33.8638C66.5222 34.0313 66.4991 34.1989 66.4645 34.3607C66.1589 35.6205 66.0205 35.6956 64.7289 35.528C63.4662 35.3662 62.2034 35.1986 60.9349 35.1351C60.3871 35.1062 59.7759 35.2391 59.28 35.4702C55.1284 37.4177 50.9999 39.4056 46.8657 41.3877C45.4299 42.0754 45.476 42.0638 46.093 43.5027C48.0304 48.0044 49.9793 52.5002 51.836 57.0366C53.2429 60.4865 51.0807 63.815 47.5634 63.7168C45.7125 63.6648 44.4382 62.6073 43.6943 61.0181C42.0971 57.6029 40.6095 54.1356 39.0873 50.6915C38.2915 48.8885 37.5073 47.0855 36.7289 45.271C36.4868 44.7105 36.0024 44.7394 35.5296 44.6642C34.1169 44.4389 32.635 44.3869 31.3088 43.9072C27.8607 42.6532 25.9925 40.0297 25.5139 36.4064C25.4159 35.6436 25.3698 34.875 25.2948 34.1122L25.2891 34.1007ZM36.1408 43.4449C38.1647 43.4738 40.1194 43.0982 41.953 42.2661C45.3607 40.7231 48.7339 39.0993 52.1128 37.4986C54.3212 36.4526 56.5181 35.372 58.7322 34.3261C59.2742 34.066 59.4299 33.7713 59.2685 33.1414C58.7726 31.1882 58.3517 29.2176 57.9365 27.2471C57.827 26.7154 57.6136 26.4785 57.0543 26.4207C54.598 26.1664 52.1474 25.866 49.691 25.5828C46.906 25.2592 44.1153 24.9702 41.336 24.5888C38.8681 24.2479 36.4233 24.1092 34.0016 24.8605C31.5106 25.6348 29.2676 26.7906 27.9069 29.1425C26.0214 32.4075 26.2232 35.7592 27.6762 39.1109C28.2586 40.4458 29.2158 41.4513 30.5189 42.162C32.2833 43.1213 34.1746 43.4045 36.135 43.4507L36.1408 43.4449ZM47.3385 62.4917C49.6795 62.509 51.2306 60.8563 51.0057 58.9378C50.9423 58.4003 50.7578 57.8571 50.5502 57.3486C48.584 52.6505 46.5947 47.9697 44.64 43.2658C44.3863 42.6532 44.1095 42.607 43.5617 42.9017C42.0106 43.7454 40.3327 44.2366 38.5856 44.4793C37.8706 44.5776 37.8302 44.6585 38.1301 45.3346C39.7676 49.0214 41.3994 52.7141 43.0428 56.4009C43.6597 57.782 44.2421 59.1805 44.9167 60.5327C45.4818 61.6711 46.3813 62.4224 47.3385 62.4802V62.4917ZM65.4497 32.1879L65.5535 32.1764C65.4151 31.0379 65.3228 29.888 65.1326 28.7553C64.8673 27.2066 64.3887 25.7273 63.5469 24.3866C63.3393 24.0572 63.126 23.6931 62.6358 23.9705C61.5288 24.5946 60.4217 25.2187 59.3146 25.8371C58.9629 26.0335 58.8937 26.2878 59.0205 26.675C59.2108 27.2644 59.3492 27.877 59.4876 28.4837C59.822 29.9573 60.1564 31.4251 60.462 32.9045C60.5947 33.5459 60.8714 33.8869 61.6095 33.91C62.6359 33.9447 63.6564 34.1007 64.6713 34.2625C65.2248 34.3492 65.4382 34.1411 65.4439 33.6268C65.4439 33.1472 65.4439 32.6675 65.4439 32.1879H65.4497Z" fill="white" stroke="white" stroke-miterlimit="10"/>
</svg>
