<svg width="94" height="94" viewBox="0 0 94 94" fill="none" xmlns="http://www.w3.org/2000/svg">
<path fill-rule="evenodd" clip-rule="evenodd" d="M65.2657 32.2969C52.3543 29.0554 39.9037 29.5048 27.7131 32.0268C23.1619 30.6007 21.727 31.6509 24.2003 35.8091C22.8235 43.5542 23.0563 51.2988 25.2814 59.0433C23.5122 63.6165 25.1134 64.4221 29.4686 62.1507C40.6933 65.027 52.9409 63.601 65.6065 61.4329C67.9818 63.4455 69.105 62.704 68.7785 58.7738C70.5512 50.9384 70.3369 43.1036 68.5084 35.2689C69.5906 30.8531 68.506 29.8687 65.2657 32.2969ZM28.3175 58.1314C26.1951 50.432 26.4622 44.3085 27.7131 36.5182C29.8889 44.2634 29.5637 50.3869 28.3175 58.1314Z" stroke="white" stroke-width="1.37226" stroke-linejoin="round"/>
<path d="M66.0898 36.4258C67.808 43.4728 67.927 51.21 66.3541 58.1551" stroke="white" stroke-width="1.0292" stroke-linecap="round" stroke-linejoin="round"/>
<path d="M26.8423 47.6648C26.5747 43.7842 27.1552 40.0232 27.5024 38.5131C28.5999 40.7446 29.0865 44.047 29.4153 47.6648C29.6898 50.6838 28.8436 55.5553 28.3862 57.6137C27.9859 55.9555 27.1168 51.6443 26.8423 47.6648Z" fill="white"/>
</svg>
