<?xml version="1.0" encoding="utf-8"?>
<!-- Generator: Adobe Illustrator 27.4.0, SVG Export Plug-In . SVG Version: 6.00 Build 0)  -->
<svg version="1.1" id="Camada_1" xmlns="http://www.w3.org/2000/svg" xmlns:xlink="http://www.w3.org/1999/xlink" x="0px" y="0px"
	 viewBox="0 0 90 90" style="enable-background:new 0 0 90 90;" xml:space="preserve">
<style type="text/css">
	.st0{fill:#FFFFFF;}
	.st1{fill-rule:evenodd;clip-rule:evenodd;fill:#FFFFFF;}
</style>
<path class="st0" d="M59.4,65.8H30.3c-2.4,0-4.3-1.8-4.3-4.1V28.1c0-2.3,1.9-4.1,4.3-4.1h29.1c2.4,0,4.3,1.8,4.3,4.1v33.6
	C63.6,64,61.7,65.8,59.4,65.8z M30.6,64.2h28.5c1.6,0,2.8-1.2,2.8-2.7v-33c0-1.5-1.3-2.7-2.8-2.7H30.6c-1.6,0-2.8,1.2-2.8,2.7v33
	C27.7,62.9,29,64.2,30.6,64.2z"/>
<path class="st1" d="M52.2,43.6c2.5,3.9,1.3,9-2.8,11.5c-4.1,2.4-9.4,1.2-11.9-2.7c-2.5-3.9-1.3-9,2.8-11.5
	C44.3,38.6,49.6,39.7,52.2,43.6z M49.4,46.9c0.1,0.2,0.3,0.4,0.5,0.4c0,0,0.1,0,0.1,0c0.3-0.1,0.4-0.3,0.4-0.6
	c-0.5-2.1-2.3-3.7-4.5-4.1c-0.3,0-0.5,0.1-0.6,0.4c0,0.3,0.1,0.5,0.4,0.6C47.6,43.8,49,45.1,49.4,46.9z"/>
<path class="st0" d="M44.8,60.4C37.7,60.4,32,54.8,32,48s5.8-12.3,12.8-12.3c7.1,0,12.8,5.5,12.8,12.3S51.9,60.4,44.8,60.4z
	 M44.8,37.4c-6.1,0-11.1,4.8-11.1,10.7c0,5.9,5,10.7,11.1,10.7c6.1,0,11.1-4.8,11.1-10.7C55.9,42.1,50.9,37.4,44.8,37.4z"/>
<path class="st0" d="M41,32.3H29.5c-0.5,0-0.9-0.4-0.9-0.8s0.4-0.8,0.9-0.8h10.6v-3.2c0-0.5,0.4-0.8,0.9-0.8c0.5,0,0.9,0.4,0.9,0.8
	v4C41.8,31.9,41.4,32.3,41,32.3z"/>
<path class="st0" d="M56.3,32.6c-1.5,0-2.8-1.2-2.8-2.7c0-1.5,1.3-2.7,2.8-2.7c0.8,0,1.6,0.4,2.2,1c0.3,0.3,0.2,0.9-0.1,1.2
	c-0.4,0.3-0.9,0.2-1.2-0.1c-0.2-0.2-0.5-0.4-0.8-0.4c-0.6,0-1.1,0.5-1.1,1.1c0,0.6,0.5,1.1,1.1,1.1c0.4,0,0.7-0.2,0.9-0.5
	c0.3-0.4,0.8-0.5,1.2-0.2c0.4,0.3,0.5,0.8,0.2,1.1C58.1,32.2,57.2,32.6,56.3,32.6z"/>
<path class="st0" d="M51.7,29.6h-1.9c-0.5,0-0.9-0.4-0.9-0.8s0.4-0.8,0.9-0.8h1.9c0.5,0,0.9,0.4,0.9,0.8S52.2,29.6,51.7,29.6z"/>
<path class="st0" d="M46.5,29.6h-1.9c-0.5,0-0.9-0.4-0.9-0.8s0.4-0.8,0.9-0.8h1.9c0.5,0,0.9,0.4,0.9,0.8S47,29.6,46.5,29.6z"/>
</svg>
