<?xml version="1.0" encoding="utf-8"?>
<!-- Generator: Adobe Illustrator 27.4.0, SVG Export Plug-In . SVG Version: 6.00 Build 0)  -->
<svg version="1.1" id="Camada_1" xmlns="http://www.w3.org/2000/svg" xmlns:xlink="http://www.w3.org/1999/xlink" x="0px" y="0px"
	 viewBox="0 0 90 90" style="enable-background:new 0 0 90 90;" xml:space="preserve">
<style type="text/css">
	.st0{clip-path:url(#SVGID_00000037657590045987950450000008743747914971233936_);}
	.st1{fill:#FFFFFF;filter:url(#Adobe_OpacityMaskFilter);}
	.st2{mask:url(#mask0_9170_143_00000025425262574142324700000016883039705362032304_);}
	.st3{fill:#FFFFFF;}
	.st4{fill:#FFFFFF;stroke:#FFFFFF;stroke-width:1.5;}
</style>
<g>
	<defs>
		<rect id="SVGID_1_" width="90" height="90"/>
	</defs>
	<clipPath id="SVGID_00000044872436605629660270000013634581184681487799_">
		<use xlink:href="#SVGID_1_"  style="overflow:visible;"/>
	</clipPath>
	<g style="clip-path:url(#SVGID_00000044872436605629660270000013634581184681487799_);">
		<defs>
			<filter id="Adobe_OpacityMaskFilter" filterUnits="userSpaceOnUse" x="25" y="25" width="39.2" height="40.2">
				<feColorMatrix  type="matrix" values="1 0 0 0 0  0 1 0 0 0  0 0 1 0 0  0 0 0 1 0"/>
			</filter>
		</defs>
		
			<mask maskUnits="userSpaceOnUse" x="25" y="25" width="39.2" height="40.2" id="mask0_9170_143_00000025425262574142324700000016883039705362032304_">
			<path class="st1" d="M90,0H0v90h90V0z"/>
		</mask>
		<g class="st2">
			<path class="st3" d="M61.6,65.2H29.5c-0.9,0-1.7-0.5-2.2-1.3c-0.5-0.8-0.6-1.9-0.2-2.8c0.4-1,1.4-1.5,2.4-1.5h10.9
				c5.8,0,10.5-5,10.5-11.2V37c0-0.7-0.5-1.3-1.2-1.3H32.2c-0.8,0-1.6-0.4-2.1-1.1c-0.5-0.7-0.7-1.7-0.4-2.6l1.7-5.1
				c0.4-1.1,1.4-1.8,2.5-1.8h27.6c1.5,0,2.6,1.3,2.6,2.8v34.6C64.3,64,63.1,65.2,61.6,65.2z M29.5,61.1c-0.5,0-0.9,0.3-1.1,0.7
				c-0.2,0.4-0.2,1,0.1,1.4c0.2,0.4,0.6,0.6,1,0.6h32.1c0.7,0,1.2-0.6,1.2-1.3V27.8c0-0.7-0.5-1.3-1.2-1.3H34c-0.5,0-1,0.3-1.1,0.9
				l-1.7,5.1c-0.2,0.4-0.1,0.9,0.2,1.3c0.2,0.3,0.6,0.5,1,0.5h17.4c1.5,0,2.6,1.3,2.6,2.8v11.4c0,7-5.3,12.7-11.9,12.7H29.5z"/>
			<path class="st3" d="M56.7,59.3c-1.6,0-2.8-1.3-2.8-2.9c0-1.6,1.3-2.9,2.8-2.9c1.6,0,2.8,1.3,2.8,2.9
				C59.6,58,58.3,59.3,56.7,59.3z M56.7,54.9c-0.8,0-1.4,0.7-1.4,1.5c0,0.8,0.6,1.5,1.4,1.5c0.8,0,1.4-0.7,1.4-1.5
				C58.1,55.6,57.5,54.9,56.7,54.9z"/>
			<path class="st3" d="M26.1,54.1h21.4c-0.5,2-1.1,3.9-2,5.3L29,60.4l-0.8-1.3c-0.2-0.3-0.5-0.7-0.7-1.2
				C26.9,56.9,26.5,55.5,26.1,54.1z"/>
			<path class="st4" d="M25.8,41.3L25.8,41.3L25.8,41.3c0-0.1,0-0.1,0-0.1c0,0,0.1,0,0.1,0h22.1c0.1,0,0.2,0.1,0.2,0.2h0l0,0
				c0,1.8-0.2,6.3-1,10.5H26.5C25.8,47.7,25.7,43.2,25.8,41.3z"/>
			<path class="st3" d="M40.9,38.3h-7.1c-0.4,0-0.7-0.3-0.7-0.7v-2.5c0-0.4,0.3-0.7,0.7-0.7c0.4,0,0.7,0.3,0.7,0.7v1.7h5.6v-1.7
				c0-0.4,0.3-0.7,0.7-0.7c0.4,0,0.7,0.3,0.7,0.7v2.5C41.6,37.9,41.3,38.3,40.9,38.3z"/>
			<path class="st3" d="M38.1,37.5h-1.4v2.9h1.4V37.5z"/>
			<circle class="st3" cx="57" cy="56" r="2"/>
		</g>
	</g>
</g>
</svg>
