<svg width="90" height="90" viewBox="0 0 90 90" fill="none" xmlns="http://www.w3.org/2000/svg">
<g clip-path="url(#clip0_963_578)">
<mask id="mask0_963_578" style="mask-type:luminance" maskUnits="userSpaceOnUse" x="0" y="0" width="90" height="90">
<path d="M90 0H0V90H90V0Z" fill="white"/>
</mask>
<g mask="url(#mask0_963_578)">
<mask id="mask1_963_578" style="mask-type:alpha" maskUnits="userSpaceOnUse" x="0" y="0" width="90" height="90">
<path d="M90 0H0V90H90V0Z" fill="white"/>
</mask>
<g mask="url(#mask1_963_578)">
<path d="M50.5 54.4129L50.8823 54.0125L53.4127 51.3735L56.1981 51.9741L63.6619 60.0368L66.3927 61.5657L60.2941 67.863L58.5465 64.6051L50.5 56.7244V54.4129Z" fill="white"/>
<path d="M33.1152 53.3394L38.1397 58.7266L28.7825 67.8632L24.3951 67.4263L23.9219 63.8955L33.1152 53.3394Z" fill="white"/>
<path d="M51.0643 46.2956C50.8276 46.2956 50.5909 46.2046 50.4271 46.0226C50.063 45.6586 50.063 45.0944 50.4271 44.7303L55.3242 39.8345C55.8703 39.2885 56.6531 39.1247 57.3995 39.3795C60.203 40.3441 62.9155 39.7799 64.8816 37.8325C66.6474 36.0671 67.4484 33.5372 66.9933 31.0802C66.9933 31.0619 66.9752 31.0073 66.8841 30.971C66.8295 30.9528 66.7748 30.9528 66.7203 31.0073L63.134 34.5928C62.3694 35.3572 61.1133 35.3572 60.3305 34.5928L57.3085 31.5716C56.5439 30.8071 56.5439 29.5514 57.3085 28.7687L60.8948 25.1833C60.9494 25.1287 60.9494 25.0559 60.9312 25.0195C60.913 24.9285 60.8402 24.9285 60.8219 24.9103C58.3643 24.4734 55.8339 25.2561 54.0681 27.0215C52.1202 28.9689 51.5558 31.699 52.5207 34.5018C52.7755 35.2481 52.6117 36.0489 52.0655 36.5766L47.1867 41.4907C46.8226 41.8547 46.2583 41.8547 45.8942 41.4907C45.5301 41.1267 45.5301 40.5625 45.8942 40.1985L50.7912 35.3026C50.8458 35.2481 50.8458 35.1752 50.8094 35.1024C49.6079 31.6261 50.3179 28.2045 52.7937 25.7475C54.9782 23.5635 58.1095 22.5807 61.1497 23.1267C61.8778 23.254 62.4604 23.7637 62.6788 24.4734C62.8973 25.1833 62.7153 25.9477 62.1873 26.4755L58.601 30.0609C58.5464 30.1156 58.5464 30.2247 58.601 30.2794L61.6229 33.3006C61.6776 33.3552 61.7868 33.3552 61.8414 33.3006L65.4277 29.7152C65.9557 29.1873 66.7203 29.0053 67.4302 29.2237C68.1402 29.4421 68.6499 30.0245 68.7773 30.7526C69.3235 33.792 68.3405 36.9225 66.156 39.1065C63.6983 41.5635 60.2758 42.2915 56.7987 41.0903C56.7442 41.0721 56.6531 41.0721 56.5985 41.1085L51.7015 46.0044C51.5376 46.2046 51.301 46.2956 51.0643 46.2956Z" fill="white"/>
<path d="M26.9424 69.0822C25.8501 69.0822 24.8124 68.6453 24.0296 67.8809C23.2468 67.0984 22.8281 66.0791 22.8281 64.9689C22.8281 63.8769 23.2651 62.8395 24.0296 62.0569L39.1941 46.8961C39.5582 46.532 40.1225 46.532 40.4866 46.8961C40.8507 47.2601 40.8507 47.8243 40.4866 48.1882L25.3222 63.3491C24.8853 63.7859 24.6486 64.3501 24.6486 64.9689C24.6486 65.5877 24.8853 66.1519 25.3222 66.5887C25.7591 67.0255 26.3235 67.2621 26.9424 67.2621C27.5614 67.2621 28.1257 67.0255 28.5627 66.5887L43.636 51.5189C44.0001 51.1549 44.5645 51.1549 44.9286 51.5189C45.2926 51.8829 45.2926 52.4471 44.9286 52.8112L29.8551 67.8809C29.0723 68.6453 28.0346 69.0822 26.9424 69.0822Z" fill="white"/>
<path d="M34.7248 38.2925L33.4375 39.5794L48.9746 55.1128L50.2618 53.8258L34.7248 38.2925Z" fill="white"/>
<path d="M60.3475 68.5363C60.1109 68.5363 59.8742 68.4453 59.7104 68.2633L59.1096 67.6627C59.0186 67.5718 58.9276 67.4443 58.8911 67.2987L58.345 65.6789L50.1894 57.5252C50.1165 57.4524 50.0619 57.3795 50.0256 57.2886L48.8059 54.868C48.6238 54.5221 48.6966 54.1035 48.9697 53.8123L51.9552 50.8093L37.082 35.9397L38.3746 34.6475L53.8121 50.0813L56.1058 51.2279C56.1969 51.2643 56.2697 51.3371 56.3425 51.3917L64.4982 59.5454L66.1184 60.0914C66.2459 60.1278 66.3733 60.2189 66.4825 60.3098L67.0832 60.9104C67.2471 61.0742 67.3563 61.3108 67.3563 61.5474C67.3563 61.7841 67.2653 62.0207 67.0832 62.1845L61.0211 68.2451C60.8209 68.4271 60.5842 68.5363 60.3475 68.5363ZM51.5729 56.3603L59.765 64.5504C59.8561 64.6415 59.947 64.7689 59.9835 64.9145L60.4204 66.2431L65.0079 61.6567L63.6789 61.2199C63.5515 61.1834 63.4241 61.0924 63.3149 61.0015L55.1228 52.8113L53.3934 51.9559L50.6991 54.6678L51.5729 56.3603Z" fill="white"/>
<path d="M26.8152 44.694C26.5786 44.694 26.3419 44.603 26.1781 44.421L21.3356 39.5797C20.9715 39.2157 20.9715 38.6515 21.3356 38.2875L23.1561 36.4675C23.9207 35.7031 24.8127 35.6485 25.5409 35.612C26.1598 35.5756 26.5057 35.5392 26.797 35.2663C26.9973 35.0661 27.0518 34.5382 27.1247 34.0287C27.2157 33.2278 27.3431 32.2996 28.0167 31.6262L31.6576 27.9861C34.2245 25.4199 39.0123 23.0357 43.8911 23.4907C44.328 23.5271 44.6557 23.8728 44.7103 24.2915C44.8196 25.2015 44.7103 26.8031 44.7103 26.876C44.6739 27.3491 44.2916 27.7132 43.8183 27.7314C42.5075 27.7677 40.1956 29.2784 37.7744 31.699C36.8823 32.5908 38.4479 34.7202 38.4479 34.7384C38.721 35.1024 38.7028 35.612 38.3751 35.9396L34.7342 39.5797C34.3701 39.9437 33.8058 39.9437 33.4416 39.5797C32.8045 38.9427 32.1491 38.6151 31.5302 38.5968C31.0386 38.5968 30.6745 38.7789 30.4925 38.9609C30.2013 39.2521 30.2376 39.8345 30.274 40.3441C30.3105 40.9265 30.3469 41.5453 29.8917 41.9822L27.4705 44.4028C27.2703 44.603 27.0336 44.694 26.8152 44.694ZM23.247 38.9427L26.8152 42.5099L28.4536 40.8719C28.4536 40.7627 28.4536 40.599 28.4353 40.4715C28.399 39.7071 28.3262 38.5605 29.2 37.7051C29.7644 37.1409 30.6199 36.795 31.512 36.795C31.5302 36.795 31.5484 36.795 31.5666 36.795C32.1856 36.8133 33.0775 36.977 34.0424 37.7051L36.5547 35.1934C35.7354 33.8467 35.0983 31.8082 36.4818 30.4249C37.9564 28.9508 40.6143 26.5847 42.908 26.0387C42.908 25.8021 42.9263 25.5291 42.908 25.2743C38.903 25.1833 34.9709 27.2399 32.9137 29.2966L29.2728 32.9366C29.0361 33.1732 28.9633 33.7374 28.9087 34.2653C28.8177 35.0479 28.7085 35.9214 28.0713 36.5584C27.2885 37.3411 26.3783 37.3956 25.6501 37.4321C25.0493 37.4685 24.7034 37.5049 24.4303 37.7596L23.247 38.9427Z" fill="white"/>
</g>
</g>
</g>
<defs>
<clipPath id="clip0_963_578">
<rect width="90" height="90" fill="white"/>
</clipPath>
</defs>
</svg>
