<svg width="90" height="90" viewBox="0 0 90 90" fill="none" xmlns="http://www.w3.org/2000/svg">
<mask id="mask0_963_548" style="mask-type:luminance" maskUnits="userSpaceOnUse" x="19" y="25" width="52" height="39">
<path d="M71 25H19V64H71V25Z" fill="white"/>
</mask>
<g mask="url(#mask0_963_548)">
<path d="M70.1701 53.5299V54.6599C70.1701 54.9599 70.1701 55.2599 70.1501 55.5299C70.0501 60.1399 69.1901 61.5599 69.0101 61.8399C68.8301 62.1399 67.9301 63.9999 65.7801 63.9999C63.6301 63.9999 62.5001 62.8499 62.5001 62.8499C62.5001 62.8499 57.0901 57.4199 56.0601 56.3899C55.9301 56.2599 55.7901 56.1399 55.6601 56.0399C54.9101 55.4599 54.0001 55.1699 53.0601 55.1699H36.9401C35.9901 55.1699 35.0801 55.4699 34.3401 56.0399C34.2101 56.1399 34.0701 56.2599 33.9401 56.3899C32.9101 57.4199 27.5001 62.8499 27.5001 62.8499C27.5001 62.8499 26.3701 63.9999 24.2201 63.9999C22.0701 63.9999 21.1701 62.1299 20.9901 61.8399C20.8201 61.5599 19.9501 60.1399 19.8501 55.5299C19.8501 55.2499 19.8301 54.9599 19.8301 54.6599V53.5299C19.8301 52.7499 19.8501 51.9599 19.9001 51.1999C20.0201 49.2499 20.3001 47.3199 20.7301 45.4199C20.6801 46.1899 20.6601 46.9399 20.6601 47.6999V48.8299C20.6601 53.4099 21.3701 55.0699 21.6901 55.5699C21.7101 55.5999 21.7201 55.6399 21.7601 55.6899C21.9901 56.1099 22.7101 57.3599 24.2301 57.3599C25.9901 57.3599 26.9201 56.4599 26.9201 56.4599L33.3601 49.9999C33.5101 49.8499 33.6801 49.6999 33.8401 49.5799C34.7201 48.9099 35.8101 48.5299 36.9401 48.5299H53.0601C54.1901 48.5299 55.3001 48.8999 56.1601 49.5799C56.3301 49.7099 56.4901 49.8499 56.6401 49.9999L63.0801 56.4599C63.0801 56.4599 64.0301 57.3799 65.7801 57.3799C67.3101 57.3799 68.0201 56.1299 68.2501 55.7099C68.2801 55.6599 68.3001 55.6299 68.3201 55.5899C68.6401 55.0899 69.3501 53.4299 69.3501 48.8499V47.7199C69.3501 46.9499 69.3301 46.1999 69.2801 45.4399C69.7101 47.3399 69.9901 49.2699 70.1101 51.2199C70.1801 51.9699 70.1901 52.7499 70.1901 53.5299H70.1701Z" fill="white"/>
<path d="M68.8601 37.9598C67.3301 32.4498 64.1001 25.8398 57.3701 25.8398C57.3701 25.8398 53.7401 25.7398 50.4901 27.6398C48.8601 28.5898 47.0201 29.1098 45.1301 29.1198H44.8801C43.0101 29.0998 41.1501 28.5998 39.5201 27.6398C36.2701 25.7398 32.6401 25.8398 32.6401 25.8398C25.9001 25.8298 22.6701 32.4398 21.1401 37.9598C20.2601 41.1198 19.8301 44.3998 19.8301 47.6998V48.8298C19.8301 49.7298 19.8601 50.5098 19.9001 51.1898C20.1301 54.6198 20.8301 55.7498 20.9801 55.9998C21.1601 56.2998 22.0601 58.1598 24.2101 58.1598C26.3601 58.1598 27.4901 57.0098 27.4901 57.0098C27.4901 57.0098 32.9001 51.5798 33.9301 50.5498C34.0601 50.4198 34.2001 50.2998 34.3301 50.1998C35.0801 49.6198 35.9901 49.3298 36.9301 49.3298H53.0501C54.0001 49.3298 54.9101 49.6298 55.6501 50.1998C55.7801 50.2998 55.9201 50.4198 56.0501 50.5498C57.0801 51.5798 62.4901 57.0098 62.4901 57.0098C62.4901 57.0098 63.6201 58.1598 65.7701 58.1598C67.9201 58.1598 68.8201 56.2898 69.0001 55.9998C69.1501 55.7498 69.8501 54.6198 70.0801 51.1898C70.1301 50.4898 70.1501 49.7098 70.1501 48.8298V47.6998C70.1701 44.3998 69.7401 41.1198 68.8601 37.9598ZM69.3401 47.6998V48.8298C69.3401 53.4098 68.6301 55.0698 68.3101 55.5698C68.2901 55.5998 68.2801 55.6398 68.2401 55.6898C68.0101 56.1098 67.2901 57.3598 65.7701 57.3598C64.0101 57.3598 63.1201 56.4898 63.0701 56.4398L56.6501 49.9598C56.5001 49.8098 56.3301 49.6598 56.1701 49.5398C55.2901 48.8698 54.2001 48.4898 53.0701 48.4898H36.9501C35.8201 48.4898 34.7101 48.8598 33.8501 49.5398C33.6801 49.6698 33.5201 49.8098 33.3701 49.9598L26.9301 56.4198C26.9301 56.4198 26.0001 57.3198 24.2401 57.3198C22.7101 57.3198 22.0001 56.0698 21.7701 55.6498C21.7501 55.5998 21.7201 55.5698 21.7001 55.5298C21.3801 55.0298 20.6701 53.3698 20.6701 48.7898V47.6598C20.6701 46.8898 20.6901 46.1298 20.7401 45.3798C20.8901 42.9198 21.3001 40.4998 21.9501 38.1498C23.4001 32.9298 26.4301 26.6698 32.6301 26.6698H32.6501C32.6501 26.6698 36.1001 26.5998 39.0901 28.3498C40.8301 29.3698 42.8201 29.9198 44.8601 29.9298H45.1401C47.1601 29.9098 49.1701 29.3598 50.9101 28.3498C53.6601 26.7298 56.8101 26.6698 57.2801 26.6698H57.3601C63.5601 26.6698 66.6001 32.9298 68.0601 38.1798C68.7101 40.5298 69.1201 42.9398 69.2701 45.4098C69.3201 46.1798 69.3401 46.9398 69.3401 47.7098V47.6998Z" fill="white"/>
<path d="M69.66 37.7401C67.35 29.4101 63.1 25.0201 57.38 25.0001C57.08 25.0001 53.42 24.9501 50.07 26.9201C48.58 27.8001 46.87 28.2701 45.13 28.2901H44.88C43.14 28.2701 41.43 27.8101 39.94 26.9201C36.58 24.9501 32.92 25.0001 32.62 25.0001C26.9 25.0001 22.65 29.4101 20.34 37.7401C19.44 40.9401 19 44.3001 19 47.7001V48.8301C19 51.7601 19.28 54.0401 19.85 55.5201C19.98 55.8701 20.12 56.1701 20.28 56.4401C20.3 56.4601 20.3 56.4701 20.31 56.5101C21.49 58.5701 23.08 59.0101 24.22 59.0101C26.71 59.0101 28.04 57.6601 28.1 57.6101L34.52 51.1501C34.62 51.0501 34.72 50.9701 34.84 50.8701C35.42 50.4201 36.17 50.1701 36.93 50.1701H53.05C53.81 50.1701 54.56 50.4201 55.14 50.8701C55.26 50.9501 55.36 51.0501 55.46 51.1501L61.9 57.6101C61.9 57.6101 63.29 59.0101 65.78 59.0101C66.91 59.0101 68.52 58.5801 69.69 56.5101C69.71 56.4801 69.72 56.4601 69.72 56.4401C69.89 56.1701 70.02 55.8701 70.15 55.5201C70.7 54.0401 71 51.7601 71 48.8301V47.7001C71 44.3001 70.55 40.9401 69.66 37.7401ZM69.34 47.7001V48.8301C69.34 53.4101 68.63 55.0701 68.31 55.5701C68.29 55.6001 68.28 55.6401 68.24 55.6901C68.01 56.1101 67.29 57.3601 65.77 57.3601C64.01 57.3601 63.12 56.4901 63.07 56.4401L56.65 49.9601C56.5 49.8101 56.33 49.6601 56.17 49.5401C55.29 48.8701 54.2 48.4901 53.07 48.4901H36.95C35.82 48.4901 34.71 48.8601 33.85 49.5401C33.68 49.6701 33.52 49.8101 33.37 49.9601L26.93 56.4201C26.93 56.4201 26 57.3201 24.24 57.3201C22.71 57.3201 22 56.0701 21.77 55.6501C21.75 55.6001 21.72 55.5701 21.7 55.5301C21.38 55.0301 20.67 53.3701 20.67 48.7901V47.6601C20.67 46.8901 20.69 46.1301 20.74 45.3801C20.89 42.9201 21.3 40.5001 21.95 38.1501C23.4 32.9301 26.43 26.6701 32.63 26.6701H32.65C32.65 26.6701 36.1 26.6001 39.09 28.3501C40.83 29.3701 42.82 29.9201 44.86 29.9301H45.14C47.16 29.9101 49.17 29.3601 50.91 28.3501C53.66 26.7301 56.81 26.6701 57.28 26.6701H57.36C63.56 26.6701 66.6 32.9301 68.06 38.1801C68.71 40.5301 69.12 42.9401 69.27 45.4101C69.32 46.1801 69.34 46.9401 69.34 47.7101V47.7001Z" fill="white"/>
<path d="M37.33 36.5599H33.91V33.1299H30.92V36.5599H27.5V39.5699H30.92V42.9799H33.91V39.5699H37.33V36.5599Z" fill="white"/>
<path d="M57.8504 36.4601C58.7704 36.4601 59.5104 35.7101 59.5104 34.7901C59.5104 33.8701 58.7704 33.1201 57.8504 33.1201C56.9304 33.1201 56.1904 33.8701 56.1904 34.7901C56.1904 35.7101 56.9304 36.4601 57.8504 36.4601Z" fill="white"/>
<path d="M57.8504 44.38C58.7704 44.38 59.5104 43.63 59.5104 42.71C59.5104 41.79 58.7704 41.04 57.8504 41.04C56.9304 41.04 56.1904 41.79 56.1904 42.71C56.1904 43.63 56.9304 44.38 57.8504 44.38Z" fill="white"/>
<path d="M61.9403 40.4201C62.8603 40.4201 63.6003 39.6701 63.6003 38.7501C63.6003 37.8301 62.8603 37.0801 61.9403 37.0801C61.0203 37.0801 60.2803 37.8301 60.2803 38.7501C60.2803 39.6701 61.0203 40.4201 61.9403 40.4201Z" fill="white"/>
<path d="M53.7498 40.4201C54.6698 40.4201 55.4098 39.6701 55.4098 38.7501C55.4098 37.8301 54.6698 37.0801 53.7498 37.0801C52.8298 37.0801 52.0898 37.8301 52.0898 38.7501C52.0898 39.6701 52.8298 40.4201 53.7498 40.4201Z" fill="white"/>
</g>
</svg>
