<svg width="90" height="90" viewBox="0 0 90 90" fill="none" xmlns="http://www.w3.org/2000/svg">
<path d="M52.0494 34.6216H26.4359C24.5383 34.6216 23 36.1599 23 38.0576V56.1744C23 58.072 24.5383 59.6103 26.4359 59.6103H52.0494C53.947 59.6103 55.4853 58.072 55.4853 56.1744V38.0576C55.4853 36.1599 53.947 34.6216 52.0494 34.6216Z" stroke="white" stroke-width="1.30496"/>
<path d="M46.1142 62.4214H32.3704C31.5079 62.4214 30.8086 63.1206 30.8086 63.9832C30.8086 64.8457 31.5079 65.545 32.3704 65.545H46.1142C46.9767 65.545 47.676 64.8457 47.676 63.9832C47.676 63.1206 46.9767 62.4214 46.1142 62.4214Z" fill="white" stroke="white" stroke-width="1.30496"/>
<path d="M23.3125 55.8574H55.1731" stroke="white" stroke-width="1.63121" stroke-linecap="round"/>
<path d="M43.6152 65.5437H54.704H64.2309C65.4385 65.5437 66.4174 64.5647 66.4174 63.3572V26.1865C66.4174 24.9789 65.4385 24 64.2309 24H45.8018C44.5942 24 43.6152 24.9789 43.6152 26.1865V34.1516" stroke="white" stroke-width="1.30496"/>
<path d="M60.3266 28.0581H49.7064C48.9301 28.0581 48.3008 28.6874 48.3008 29.4637C48.3008 30.24 48.9301 30.8693 49.7064 30.8693H60.3266C61.1029 30.8693 61.7322 30.24 61.7322 29.4637C61.7322 28.6874 61.1029 28.0581 60.3266 28.0581Z" fill="white"/>
</svg>
