<?xml version="1.0" encoding="utf-8"?>
<!-- Generator: Adobe Illustrator 27.4.0, SVG Export Plug-In . SVG Version: 6.00 Build 0)  -->
<svg version="1.1" id="Camada_1" xmlns="http://www.w3.org/2000/svg" xmlns:xlink="http://www.w3.org/1999/xlink" x="0px" y="0px"
	 viewBox="0 0 90 90" style="enable-background:new 0 0 90 90;" xml:space="preserve">
<style type="text/css">
	.st0{fill:#FFFFFF;filter:url(#Adobe_OpacityMaskFilter);}
	.st1{mask:url(#mask0_9168_11_00000044175206290555863540000013780189910420690839_);}
	.st2{fill:#FFFFFF;}
	.st3{fill-rule:evenodd;clip-rule:evenodd;fill:#FFFFFF;}
</style>
<g>
	<g>
		<defs>
			<filter id="Adobe_OpacityMaskFilter" filterUnits="userSpaceOnUse" x="33" y="22" width="24.9" height="46.9">
				<feColorMatrix  type="matrix" values="1 0 0 0 0  0 1 0 0 0  0 0 1 0 0  0 0 0 1 0"/>
			</filter>
		</defs>
		
			<mask maskUnits="userSpaceOnUse" x="33" y="22" width="24.9" height="46.9" id="mask0_9168_11_00000044175206290555863540000013780189910420690839_">
			<path class="st0" d="M90,0H0v90h90V0z"/>
		</mask>
		<g class="st1">
			<path class="st2" d="M53.5,68.9H37.4c-1.2,0-2.3-0.5-3.1-1.3c-0.8-0.9-1.3-2-1.3-3.2V26.6c0-1.2,0.5-2.3,1.3-3.2
				c0.8-0.9,1.9-1.3,3.1-1.3h16.1c1.2,0,2.3,0.5,3.1,1.3c0.8,0.9,1.3,2,1.3,3.2v37.8c0,1.2-0.5,2.3-1.3,3.2
				C55.8,68.4,54.7,68.9,53.5,68.9z M37.4,23.6c-0.7,0-1.4,0.3-2,0.9c-0.5,0.6-0.8,1.3-0.8,2.1v37.8c0,0.8,0.3,1.5,0.8,2.1
				c0.5,0.6,1.2,0.9,2,0.9h16.1c0.7,0,1.4-0.3,2-0.9c0.5-0.6,0.8-1.3,0.8-2.1V26.6c0-0.8-0.3-1.5-0.8-2.1c-0.5-0.6-1.2-0.9-2-0.9
				L37.4,23.6L37.4,23.6z"/>
			<path class="st3" d="M48.2,27.8h-5.7c-0.3,0-0.6-0.3-0.6-0.6s0.3-0.6,0.6-0.6h5.7c0.3,0,0.6,0.3,0.6,0.6
				C48.8,27.5,48.5,27.8,48.2,27.8z"/>
			<path class="st2" d="M48.2,28h-5.7c-0.4,0-0.8-0.4-0.8-0.8c0-0.4,0.4-0.8,0.8-0.8h5.7c0.4,0,0.8,0.4,0.8,0.8
				C49,27.6,48.6,28,48.2,28z M42.4,26.7c-0.3,0-0.5,0.2-0.5,0.5c0,0.3,0.2,0.5,0.5,0.5h5.7c0.3,0,0.5-0.2,0.5-0.5
				c0-0.3-0.2-0.5-0.5-0.5H42.4z"/>
			<path class="st3" d="M46.5,37.8c1-1.3,2.3-1.3,2.3-1.3s0.2,1.2-0.7,2.3c-1,1.2-2.2,1-2.2,1S45.7,38.9,46.5,37.8z"/>
			<path class="st3" d="M46,40.7c0.5,0,1.4-0.7,2.6-0.7c2,0,2.8,1.5,2.8,1.5s-1.6,0.8-1.6,2.8c0,2.2,2,3,2,3s-1.4,3.9-3.2,3.9
				c-0.8,0-1.5-0.6-2.4-0.6c-0.9,0-1.8,0.6-2.4,0.6c-1.7,0-3.8-3.7-3.8-6.7c0-2.9,1.8-4.5,3.5-4.5C44.6,40.1,45.4,40.7,46,40.7z"/>
		</g>
	</g>
</g>
</svg>
