<svg width="94" height="94" viewBox="0 0 94 94" fill="none" xmlns="http://www.w3.org/2000/svg">
<mask id="mask0_371:967" style="mask-type:alpha" maskUnits="userSpaceOnUse" x="0" y="0" width="94" height="94">
<rect width="94" height="94" fill="white"/>
</mask>
<g mask="url(#mask0_371:967)">
<path d="M57.4975 68.9633H36.5025C34.0197 68.9633 32 66.9247 32 64.4185V35.1448C32 32.6386 34.0197 30.6 36.5025 30.6H57.4958C59.9787 30.6 61.9983 32.6386 61.9983 35.1448V64.4185C62 66.9247 59.9803 68.9633 57.4975 68.9633ZM36.5025 32.2986C34.9495 32.2986 33.6844 33.5755 33.6844 35.1448V64.4185C33.6844 65.9878 34.9495 67.263 36.5025 67.263H57.4958C59.0505 67.263 60.3139 65.9861 60.3139 64.4185V35.1448C60.3139 33.5755 59.0488 32.3003 57.4958 32.3003H36.5025V32.2986Z" fill="white"/>
<path d="M58.4761 67.9755C58.5856 68.2713 58.6412 68.5859 58.6412 68.9191C58.6412 70.4528 57.4149 71.6906 55.8956 71.6906C54.3762 71.6906 53.1499 70.4528 53.1499 68.9191C53.1499 68.642 53.187 68.3733 53.2695 68.1149" fill="white"/>
<path d="M35.524 67.9755C35.4145 68.2713 35.3589 68.5859 35.3589 68.9191C35.3589 70.4528 36.5852 71.6906 38.1045 71.6906C39.6239 71.6906 40.8502 70.4528 40.8502 68.9191C40.8502 68.642 40.8131 68.3733 40.7306 68.1149" fill="white"/>
<path d="M54.4097 25.4006H39.6405C38.7107 25.4006 37.9561 24.6388 37.9561 23.7003C37.9561 22.7617 38.7107 22 39.6405 22H54.4114C55.3412 22 56.0959 22.7617 56.0959 23.7003C56.0959 24.6388 55.3412 25.4006 54.4097 25.4006Z" fill="white"/>
<path d="M54.5229 32.2968C54.058 32.2968 53.6807 31.916 53.6807 31.4467V23.7002C53.6807 23.231 54.058 22.8501 54.5229 22.8501C54.9878 22.8501 55.3651 23.231 55.3651 23.7002V31.4467C55.3651 31.916 54.9878 32.2968 54.5229 32.2968Z" fill="white"/>
<path d="M39.4775 32.2968C39.0126 32.2968 38.6353 31.916 38.6353 31.4467V23.7002C38.6353 23.231 39.0126 22.8501 39.4775 22.8501C39.9424 22.8501 40.3197 23.231 40.3197 23.7002V31.4467C40.3197 31.916 39.9441 32.2968 39.4775 32.2968Z" fill="white"/>
<path d="M51.0848 63.2316C49.6901 63.2316 48.5581 62.089 48.5581 60.6812V38.7681C48.5581 37.3602 49.6901 36.2177 51.0848 36.2177C52.4795 36.2177 53.6114 37.3602 53.6114 38.7681V60.6829C53.6114 62.089 52.4795 63.2316 51.0848 63.2316Z" fill="white"/>
<path d="M42.7903 63.2316C41.3956 63.2316 40.2637 62.089 40.2637 60.6812V38.7681C40.2637 37.3602 41.3956 36.2177 42.7903 36.2177C44.1851 36.2177 45.317 37.3602 45.317 38.7681V60.6829C45.317 62.089 44.1851 63.2316 42.7903 63.2316Z" fill="white"/>
</g>
</svg>
