<?xml version="1.0" encoding="utf-8"?>
<!-- Generator: Adobe Illustrator 27.4.0, SVG Export Plug-In . SVG Version: 6.00 Build 0)  -->
<svg version="1.1" id="Camada_1" xmlns="http://www.w3.org/2000/svg" xmlns:xlink="http://www.w3.org/1999/xlink" x="0px" y="0px"
	 viewBox="0 0 90 90" style="enable-background:new 0 0 90 90;" xml:space="preserve">
<style type="text/css">
	.st0{fill:#FFFFFF;filter:url(#Adobe_OpacityMaskFilter);}
	.st1{mask:url(#mask0_371:826_00000002384894717506213490000011700184033028421007_);}
	.st2{fill:#FFFFFF;}
</style>
<defs>
	<filter id="Adobe_OpacityMaskFilter" filterUnits="userSpaceOnUse" x="24" y="19" width="52.1" height="54">
		<feColorMatrix  type="matrix" values="1 0 0 0 0  0 1 0 0 0  0 0 1 0 0  0 0 0 1 0"/>
	</filter>
</defs>
<mask maskUnits="userSpaceOnUse" x="24" y="19" width="52.1" height="54" id="mask0_371:826_00000002384894717506213490000011700184033028421007_">
	<rect x="-2" y="-2" class="st0" width="94" height="94"/>
</mask>
<g class="st1">
	<path class="st2" d="M52.5,73H33.7c-2.5,0-4.5-2-4.5-4.5c0-0.7,0.1-1.3,0.4-1.9C26.1,63,24,58,24,52.9c0-7,3.7-13.4,9.7-16.8v-2.4
		c0-2.1,1.7-3.8,3.8-3.8h0.2v-7.3c0-2,1.6-3.6,3.5-3.6H45c1.9,0,3.5,1.6,3.5,3.6v0.7l1.5,0.2c5.6,0.7,10.5,3.6,14,8.1l0.2,0.2
		l0.2-0.1c0.8-0.4,1.7-0.5,2.5-0.3c0.8,0.2,1.4,0.7,1.9,1.4c0,0,0,0,0,0l0.7,0.9c2.4,0.4,4.4,1.9,5.5,4c2.2,3.9,0.8,8.8-3.1,11
		c-1,0.6-2.2,0.9-3.4,1c-0.2,0-0.3,0-0.5,0c-2.9,0-5.6-1.6-7-4.1c-1.2-2.1-1.3-4.7-0.4-7l-0.4-0.7c-0.4-0.8-0.5-1.7-0.3-2.6
		c0.2-0.8,0.7-1.4,1.3-1.9c-2.9-3.6-7-6-11.6-6.6l-1.1-0.1v3.2h0.2c2.1,0,3.8,1.7,3.8,3.8v2.4c6,3.4,9.7,9.8,9.7,16.8
		c0,5.1-2.1,10.1-5.7,13.7c0.3,0.6,0.4,1.2,0.4,1.9C57,71,55,73,52.5,73z M32.7,68c-0.1,0.1-0.1,0.3-0.1,0.5c0,0.6,0.5,1.1,1.1,1.1
		h18.8c0.6,0,1.1-0.5,1.1-1.1c0-0.2,0-0.3-0.1-0.5H32.7z M31.9,66.2h22.4l0.5-0.5c3.6-3.3,5.6-8,5.6-12.9c0-6.5-3.5-12.4-9.2-15.4
		l-0.5-0.3v-3.5c0-1.1-0.9-2-2-2h-2v-9.1c0-1-0.8-1.7-1.7-1.7h-3.8c-0.9,0-1.7,0.8-1.7,1.7v9.1h-2c-1.1,0-2,0.9-2,2v3.5L35,37.4
		c-5.7,3-9.2,8.9-9.2,15.4c0,4.9,2,9.6,5.6,12.9L31.9,66.2z M62.6,38.3L62.6,38.3l-0.2,0.5c-0.9,1.9-0.8,4,0.2,5.8
		c1.1,2,3.2,3.2,5.4,3.2c0.1,0,0.3,0,0.4,0c0.9-0.1,1.8-0.3,2.6-0.8c3-1.7,4.1-5.5,2.4-8.5c-1-1.7-2.6-2.9-4.6-3.1l-0.4-0.1
		l-0.1-0.1l-1.2,0.2c-0.8,0.1-1.5,0.4-2.2,0.7c-0.8,0.6-1.4,1.1-1.8,1.5L62.6,38.3z"/>
	<path class="st2" d="M68.7,49.4c4,0,7.2-3.2,7.2-7.2c0-4-3.2-7.2-7.2-7.2c-4,0-7.2,3.2-7.2,7.2C61.5,46.1,64.8,49.4,68.7,49.4z"/>
</g>
</svg>
