<?xml version="1.0" encoding="utf-8"?>
<!-- Generator: Adobe Illustrator 27.4.0, SVG Export Plug-In . SVG Version: 6.00 Build 0)  -->
<svg version="1.1" id="Camada_1" xmlns="http://www.w3.org/2000/svg" xmlns:xlink="http://www.w3.org/1999/xlink" x="0px" y="0px"
	 viewBox="0 0 90 90" style="enable-background:new 0 0 90 90;" xml:space="preserve">
<style type="text/css">
	.st0{fill:#FFFFFF;filter:url(#Adobe_OpacityMaskFilter);}
	.st1{mask:url(#mask0_9168_21_00000139292774159240256630000002666250758509591983_);}
	.st2{fill:#FFFFFF;}
	.st3{fill-rule:evenodd;clip-rule:evenodd;fill:#FFFFFF;}
</style>
<g>
	<g>
		<defs>
			<filter id="Adobe_OpacityMaskFilter" filterUnits="userSpaceOnUse" x="32.6" y="21.1" width="28.3" height="47">
				<feColorMatrix  type="matrix" values="1 0 0 0 0  0 1 0 0 0  0 0 1 0 0  0 0 0 1 0"/>
			</filter>
		</defs>
		
			<mask maskUnits="userSpaceOnUse" x="32.6" y="21.1" width="28.3" height="47" id="mask0_9168_21_00000139292774159240256630000002666250758509591983_">
			<path class="st0" d="M90,0H0v90h90V0z"/>
		</mask>
		<g class="st1">
			<path class="st2" d="M53.5,68H37.1c-1.2,0-2.3-0.5-3.2-1.3c-0.9-0.9-1.3-2-1.3-3.2V25.6c0-1.2,0.5-2.4,1.3-3.2
				c0.9-0.9,2-1.3,3.2-1.3h16.4c1.2,0,2.3,0.5,3.2,1.3c0.9,0.9,1.3,2,1.3,3.2v37.9c0,1.2-0.5,2.4-1.3,3.2C55.8,67.6,54.7,68,53.5,68
				z M37.1,22.7c-0.8,0-1.5,0.3-2,0.9c-0.5,0.6-0.9,1.3-0.9,2.1v37.9c0,0.8,0.3,1.5,0.9,2.1c0.5,0.6,1.3,0.9,2,0.9h16.4
				c0.8,0,1.5-0.3,2-0.9c0.5-0.6,0.9-1.3,0.9-2.1V25.6c0-0.8-0.3-1.5-0.9-2.1c-0.5-0.6-1.3-0.9-2-0.9H37.1z"/>
			<path class="st3" d="M48.1,26.9h-5.9c-0.3,0-0.6-0.3-0.6-0.6v-0.1c0-0.3,0.3-0.6,0.6-0.6h5.9c0.3,0,0.6,0.3,0.6,0.6v0.1
				C48.7,26.6,48.4,26.9,48.1,26.9z"/>
			<path class="st2" d="M48.1,27h-5.9c-0.4,0-0.8-0.4-0.8-0.8c0-0.4,0.4-0.8,0.8-0.8h5.9c0.4,0,0.8,0.4,0.8,0.8
				C48.9,26.7,48.5,27,48.1,27z M42.2,25.8c-0.3,0-0.5,0.2-0.5,0.5c0,0.3,0.2,0.5,0.5,0.5h5.9c0.3,0,0.5-0.2,0.5-0.5
				s-0.2-0.5-0.5-0.5H42.2z"/>
			<path class="st2" d="M60.8,51.8c0-0.9-0.7-1.6-1.6-1.6l-0.1,0c-0.4,0-0.7,0.1-1,0.3c0-0.4-0.2-0.7-0.5-1
				c-0.3-0.3-0.7-0.5-1.1-0.5c-0.4,0-0.7,0.1-1,0.3c-0.1-0.4-0.3-0.7-0.6-0.9C54.6,48.1,54.3,48,54,48c0,0,0,0-0.1,0l-0.1,0
				c-0.4,0-0.7,0.1-1,0.3l0-3.6c0-0.9-0.7-1.7-1.7-1.7h-0.1c-0.9,0-1.7,0.7-1.7,1.7l0,6l0,0.9l0,1.3L48,51.7c-0.1,0-0.1-0.1-0.2-0.1
				c-0.6-0.4-1.4-0.4-2,0c-0.1,0.1-0.2,0.1-0.3,0.2c-0.6,0.6-0.7,1.5-0.3,2.2c0.8,1.4,2.4,4,3.8,5.7c1.1,1.3,2.8,1.8,4,2
				c0.6,0.1,1.1,0.1,1.6,0.1c0.7,0,1.2-0.1,1.5-0.1c0,0,0.1,0,0.1,0c0.5-0.1,1.4-0.4,2.3-1c1.1-0.8,1.7-1.8,2-3.2c0,0,0,0,0,0
				C60.5,57.4,60.9,54.3,60.8,51.8z"/>
		</g>
	</g>
</g>
</svg>
