<?xml version="1.0" encoding="utf-8"?>
<!-- Generator: Adobe Illustrator 27.4.0, SVG Export Plug-In . SVG Version: 6.00 Build 0)  -->
<svg version="1.1" id="Camada_1" xmlns="http://www.w3.org/2000/svg" xmlns:xlink="http://www.w3.org/1999/xlink" x="0px" y="0px"
	 viewBox="0 0 90 90" style="enable-background:new 0 0 90 90;" xml:space="preserve">
<style type="text/css">
	.st0{fill:#FFFFFF;filter:url(#Adobe_OpacityMaskFilter);}
	.st1{mask:url(#mask0_9168_31_00000042706138003731370100000017174537026952336536_);}
	.st2{fill:#FFFFFF;}
</style>
<g>
	<g>
		<defs>
			<filter id="Adobe_OpacityMaskFilter" filterUnits="userSpaceOnUse" x="20.1" y="25.9" width="50.7" height="38.3">
				<feColorMatrix  type="matrix" values="1 0 0 0 0  0 1 0 0 0  0 0 1 0 0  0 0 0 1 0"/>
			</filter>
		</defs>
		
			<mask maskUnits="userSpaceOnUse" x="20.1" y="25.9" width="50.7" height="38.3" id="mask0_9168_31_00000042706138003731370100000017174537026952336536_">
			<path class="st0" d="M90,0H0v90h90V0z"/>
		</mask>
		<g class="st1">
			<path class="st2" d="M67.1,58.7H23.8c-2.1,0-3.7-1.6-3.7-3.6v-25c0-2.3,2-4.2,4.4-4.2h41.9c2.4,0,4.4,1.9,4.4,4.2v25
				C70.9,57.1,69.2,58.7,67.1,58.7z M24.5,27.6c-1.5,0-2.7,1.1-2.7,2.5v25c0,1,0.9,1.8,2,1.8h43.3c1.1,0,2-0.8,2-1.8v-25
				c0-1.4-1.2-2.5-2.7-2.5H24.5z"/>
			<path class="st2" d="M23.8,64.1c-0.1,0-0.2,0-0.4-0.1c-0.5-0.2-0.7-0.8-0.5-1.3l2.2-4.8c0.2-0.5,0.8-0.7,1.3-0.5
				c0.5,0.2,0.7,0.8,0.5,1.3l-2.2,4.9C24.5,63.9,24.1,64.1,23.8,64.1z"/>
			<path class="st2" d="M67.3,64.1c-0.4,0-0.7-0.2-0.9-0.6l-2.2-4.9c-0.2-0.5,0-1.1,0.5-1.3c0.5-0.2,1,0,1.3,0.5l2.2,4.9
				c0.2,0.5,0,1.1-0.5,1.3C67.6,64.1,67.5,64.1,67.3,64.1z"/>
			<path class="st2" d="M40,46.9c-0.2,0-0.5-0.1-0.7-0.3c-0.4-0.4-0.4-1,0-1.4l9.9-10c0.4-0.4,1-0.4,1.3,0c0.4,0.4,0.4,1,0,1.4
				l-9.9,10C40.5,46.8,40.3,46.9,40,46.9z"/>
			<path class="st2" d="M39.4,46.7c-0.3,0-0.7-0.1-0.9-0.4c-0.5-0.5-0.5-1.4,0-1.9l9.9-10c0.5-0.5,1.3-0.5,1.8,0
				c0.5,0.5,0.5,1.4,0,1.9l-9.9,10C40.1,46.5,39.8,46.7,39.4,46.7z"/>
			<path class="st2" d="M39.4,47.8c-0.7,0-1.3-0.3-1.7-0.7c-1-1-1-2.5,0-3.5l9.9-10c1-1,2.5-1,3.5,0c1,1,1,2.5,0,3.5l-9.9,10
				C40.7,47.6,40.1,47.8,39.4,47.8z M49.3,35.2c0,0-0.1,0-0.1,0l-9.9,10c-0.1,0.1-0.1,0.2,0,0.2c0.1,0.1,0.2,0.1,0.2,0l9.8-10
				c0.1-0.1,0.1-0.2,0-0.2C49.4,35.2,49.3,35.2,49.3,35.2z"/>
			<path class="st2" d="M46.5,47.7c-0.2,0-0.5-0.1-0.7-0.3c-0.4-0.4-0.4-1,0-1.4l4.1-4.2c0.4-0.4,1-0.4,1.3,0c0.4,0.4,0.4,1,0,1.4
				l-4.1,4.2C47,47.6,46.8,47.7,46.5,47.7z"/>
			<path class="st2" d="M46.5,48.1c-0.3,0-0.7-0.1-0.9-0.4c-0.5-0.5-0.5-1.4,0-1.9l4.1-4.2c0.5-0.5,1.3-0.5,1.8,0
				c0.5,0.5,0.5,1.4,0,1.9l-4.1,4.2C47.2,47.9,46.9,48.1,46.5,48.1z"/>
			<path class="st2" d="M46.5,49.2c-0.7,0-1.3-0.3-1.7-0.7c-1-1-1-2.5,0-3.5l4.1-4.2c1-1,2.5-1,3.5,0c1,1,1,2.5,0,3.5l-4.1,4.2
				C47.8,49,47.2,49.2,46.5,49.2z M50.6,42.4c0,0-0.1,0-0.1,0l-4.1,4.2c-0.1,0.1-0.1,0.2,0,0.2c0.1,0.1,0.2,0.1,0.2,0l4.1-4.2
				c0.1-0.1,0.1-0.2,0-0.2C50.7,42.4,50.7,42.4,50.6,42.4z"/>
		</g>
	</g>
</g>
</svg>
