<?xml version="1.0" encoding="utf-8"?>
<!-- Generator: Adobe Illustrator 27.4.0, SVG Export Plug-In . SVG Version: 6.00 Build 0)  -->
<svg version="1.1" id="Camada_1" xmlns="http://www.w3.org/2000/svg" xmlns:xlink="http://www.w3.org/1999/xlink" x="0px" y="0px"
	 viewBox="0 0 90 90" style="enable-background:new 0 0 90 90;" xml:space="preserve">
<style type="text/css">
	.st0{fill:#FFFFFF;filter:url(#Adobe_OpacityMaskFilter);}
	.st1{mask:url(#mask0_9170_130_00000042710123155393332420000018260986769067851157_);}
	.st2{fill:#FFFFFF;}
</style>
<g>
	<g>
		<defs>
			<filter id="Adobe_OpacityMaskFilter" filterUnits="userSpaceOnUse" x="21" y="24" width="47.9" height="41.3">
				<feColorMatrix  type="matrix" values="1 0 0 0 0  0 1 0 0 0  0 0 1 0 0  0 0 0 1 0"/>
			</filter>
		</defs>
		
			<mask maskUnits="userSpaceOnUse" x="21" y="24" width="47.9" height="41.3" id="mask0_9170_130_00000042710123155393332420000018260986769067851157_">
			<path class="st0" d="M90,0H0v90h90V0z"/>
		</mask>
		<g class="st1">
			<path class="st2" d="M59.4,65.3H30.5c-3.2,0-5.9-2.7-5.9-5.9V45.8c0-0.4,0.4-0.8,0.8-0.8c0.4,0,0.8,0.4,0.8,0.8v13.6
				c0,2.4,1.9,4.3,4.3,4.3h28.9c2.4,0,4.3-1.9,4.3-4.3V45.8c0-0.4,0.4-0.8,0.8-0.8c0.4,0,0.8,0.4,0.8,0.8v13.6
				C65.3,62.6,62.7,65.3,59.4,65.3z"/>
			<path class="st2" d="M65.2,43.6h-3.4c-0.4,0-0.8-0.4-0.8-0.8c0-0.4,0.4-0.8,0.8-0.8h3.4c1.2,0,2.1-0.9,2.1-2.1
				c0-1.2-0.9-2.1-2.1-2.1H24.7c-1.2,0-2.1,0.9-2.1,2.1c0,1.2,0.9,2.1,2.1,2.1h3.4c0.4,0,0.8,0.4,0.8,0.8c0,0.4-0.4,0.8-0.8,0.8
				h-3.4c-2,0-3.7-1.7-3.7-3.7s1.6-3.7,3.7-3.7h40.5c2,0,3.7,1.7,3.7,3.7C68.9,42,67.2,43.6,65.2,43.6z"/>
			<path class="st2" d="M64.5,34.2c-3.2-2.9-10.8-4.9-19.5-4.9c-8.8,0-16.3,2-19.5,4.9"/>
			<path class="st2" d="M47.6,26.6c0-1.5-1.2-2.6-2.6-2.6c-1.5,0-2.6,1.2-2.6,2.6c0,1.5,1.2,2.6,2.6,2.6
				C46.4,29.3,47.6,28.1,47.6,26.6z"/>
			<path class="st2" d="M57.8,43.6h-0.4c-0.4,0-0.8-0.4-0.8-0.8c0-0.4,0.4-0.8,0.8-0.8h0.4c0.4,0,0.8,0.4,0.8,0.8
				C58.6,43.3,58.2,43.6,57.8,43.6z M52,43.6h-0.4c-0.4,0-0.8-0.4-0.8-0.8c0-0.4,0.4-0.8,0.8-0.8H52c0.4,0,0.8,0.4,0.8,0.8
				C52.8,43.3,52.5,43.6,52,43.6z"/>
			<path class="st2" d="M50.1,58.8c-0.2,0-0.4-0.1-0.6-0.2c-2.5-2.7-1.1-4.5-0.1-5.9c1-1.3,1.5-2,0.1-3.5c-0.3-0.3-0.3-0.8,0-1.1
				c0.3-0.3,0.8-0.3,1.1,0c2.3,2.4,1,4.2,0,5.6c-1,1.3-1.6,2.2,0,3.9c0.3,0.3,0.3,0.8,0,1.1C50.4,58.7,50.3,58.8,50.1,58.8z"/>
			<path class="st2" d="M45.1,58.8c-0.2,0-0.4-0.1-0.6-0.2c-2.5-2.7-1.1-4.5-0.1-5.9c1-1.3,1.5-2,0.1-3.5c-0.3-0.3-0.3-0.8,0-1.1
				c0.3-0.3,0.8-0.3,1.1,0c2.3,2.4,1,4.2,0,5.6c-1,1.3-1.6,2.2,0,3.9c0.3,0.3,0.3,0.8,0,1.1C45.4,58.7,45.3,58.8,45.1,58.8z"/>
			<path class="st2" d="M40,58.8c-0.2,0-0.4-0.1-0.6-0.2c-2.5-2.7-1.1-4.5-0.1-5.9c1-1.3,1.5-2,0.1-3.5c-0.3-0.3-0.3-0.8,0-1.1
				c0.3-0.3,0.8-0.3,1.1,0c2.3,2.4,1,4.2,0,5.6c-1,1.3-1.6,2.2,0,3.9c0.3,0.3,0.3,0.8,0,1.1C40.3,58.7,40.2,58.8,40,58.8z"/>
		</g>
	</g>
</g>
</svg>
