<?xml version="1.0" encoding="UTF-8"?>
<!DOCTYPE svg PUBLIC "-//W3C//DTD SVG 1.1//EN" "http://www.w3.org/Graphics/SVG/1.1/DTD/svg11.dtd">
<svg xmlns="http://www.w3.org/2000/svg" version="1.1" width="7500px" height="1250px" style="shape-rendering:geometricPrecision; text-rendering:geometricPrecision; image-rendering:optimizeQuality; fill-rule:evenodd; clip-rule:evenodd" xmlns:xlink="http://www.w3.org/1999/xlink">
<g><path style="opacity:1" fill="#fefdfe" d="M 3566.5,154.5 C 3585.54,155.002 3604.54,156.168 3623.5,158C 3634.46,159.291 3645.13,161.791 3655.5,165.5C 3655.65,214.601 3653.32,263.601 3648.5,312.5C 3626.79,306.037 3604.79,304.87 3582.5,309C 3571.62,311.691 3562.79,317.525 3556,326.5C 3540.34,351.15 3531.67,378.15 3530,407.5C 3529.5,419.829 3529.33,432.162 3529.5,444.5C 3562.83,444.5 3596.17,444.5 3629.5,444.5C 3629.5,492.167 3629.5,539.833 3629.5,587.5C 3597.5,587.5 3565.5,587.5 3533.5,587.5C 3533.5,745.833 3533.5,904.167 3533.5,1062.5C 3481.83,1062.5 3430.17,1062.5 3378.5,1062.5C 3378.5,904.167 3378.5,745.833 3378.5,587.5C 3357.5,587.5 3336.5,587.5 3315.5,587.5C 3315.5,539.833 3315.5,492.167 3315.5,444.5C 3336.08,444.827 3356.58,444.493 3377,443.5C 3378.14,416.765 3380.14,390.099 3383,363.5C 3388.42,315.909 3403.75,271.909 3429,231.5C 3461.89,182.801 3507.73,157.135 3566.5,154.5 Z"/></g>
<g><path style="opacity:1" fill="#fefdfe" d="M 1390.5,177.5 C 1420.58,177.284 1443.41,189.951 1459,215.5C 1479.17,253.406 1479.5,291.406 1460,329.5C 1436.74,365.809 1404.57,377.309 1363.5,364C 1336.8,350.27 1321.3,328.437 1317,298.5C 1313.52,273.254 1315.86,248.587 1324,224.5C 1337.2,196.149 1359.37,180.483 1390.5,177.5 Z"/></g>
<g><path style="opacity:1" fill="#fefdfe" d="M 3.5,211.5 C 175.833,211.5 348.167,211.5 520.5,211.5C 520.5,265.833 520.5,320.167 520.5,374.5C 459.5,374.5 398.5,374.5 337.5,374.5C 337.5,603.833 337.5,833.167 337.5,1062.5C 285.833,1062.5 234.167,1062.5 182.5,1062.5C 182.5,833.167 182.5,603.833 182.5,374.5C 122.833,374.5 63.1667,374.5 3.5,374.5C 3.5,320.167 3.5,265.833 3.5,211.5 Z"/></g>
<g><path style="opacity:1" fill="#fefdfe" d="M 5391.5,262.5 C 5393.3,268.084 5394.13,274.084 5394,280.5C 5394.97,332.496 5395.47,384.496 5395.5,436.5C 5437.17,436.5 5478.83,436.5 5520.5,436.5C 5520.5,464.5 5520.5,492.5 5520.5,520.5C 5478.83,520.5 5437.17,520.5 5395.5,520.5C 5396,632.169 5396.83,743.836 5398,855.5C 5398.32,871.848 5398.99,888.182 5400,904.5C 5401.56,926.554 5410.4,945.054 5426.5,960C 5433.55,964.46 5441.21,967.127 5449.5,968C 5470.17,968.372 5490.84,968.372 5511.5,968C 5513.17,973.695 5514.34,979.529 5515,985.5C 5516.49,1006.48 5516.83,1027.48 5516,1048.5C 5480.02,1062.41 5443.19,1065.24 5405.5,1057C 5368.25,1045.08 5341.75,1021.25 5326,985.5C 5315.15,957.222 5310.15,927.888 5311,897.5C 5308.99,771.84 5307.49,646.173 5306.5,520.5C 5281.83,520.5 5257.17,520.5 5232.5,520.5C 5232.5,492.5 5232.5,464.5 5232.5,436.5C 5257.5,436.5 5282.5,436.5 5307.5,436.5C 5307.33,388.166 5307.5,339.832 5308,291.5C 5336.03,282.103 5363.86,272.437 5391.5,262.5 Z"/></g>
<g><path style="opacity:1" fill="#fefdfe" d="M 4818.5,424.5 C 4860.44,423.317 4899.77,432.817 4936.5,453C 4942.53,455.853 4946.53,460.353 4948.5,466.5C 4944.98,489.569 4938.82,511.902 4930,533.5C 4929.25,534.99 4928.09,535.99 4926.5,536.5C 4909.5,529.67 4892.5,522.836 4875.5,516C 4853.19,508.971 4830.52,507.304 4807.5,511C 4775.35,520.438 4755.85,541.604 4749,574.5C 4743.75,610.143 4755.25,638.976 4783.5,661C 4804.86,676.022 4827.53,689.022 4851.5,700C 4872.2,711.041 4891.53,724.041 4909.5,739C 4946.55,771.271 4965.71,812.104 4967,861.5C 4969.17,892.131 4965.84,922.131 4957,951.5C 4935.5,1007.66 4895.33,1042.49 4836.5,1056C 4775.69,1068.25 4718.02,1059.59 4663.5,1030C 4659.25,1027.29 4655.08,1024.46 4651,1021.5C 4650.57,1014.75 4651.24,1008.08 4653,1001.5C 4659.08,979.941 4664.74,958.274 4670,936.5C 4688.07,948.621 4707.24,958.788 4727.5,967C 4754.05,976.889 4781.39,980.222 4809.5,977C 4848.97,971.694 4872.47,949.528 4880,910.5C 4884.46,886.785 4882.13,863.785 4873,841.5C 4866.82,831.323 4859.32,822.156 4850.5,814C 4826.33,794.735 4800,778.735 4771.5,766C 4742.75,750.702 4717.92,730.535 4697,705.5C 4662.58,656.882 4653.91,603.882 4671,546.5C 4678.37,520.093 4690.7,496.426 4708,475.5C 4738.89,445.641 4775.72,428.641 4818.5,424.5 Z"/></g>
<g><path style="opacity:1" fill="#fefdfe" d="M 6021.5,424.5 C 6092.15,424.745 6149.32,452.411 6193,507.5C 6228.43,556.433 6249.77,611.1 6257,671.5C 6269.74,758.837 6258.41,842.837 6223,923.5C 6197.16,978.044 6156.99,1018.21 6102.5,1044C 6030.73,1072.72 5962.73,1065.72 5898.5,1023C 5857.52,991.587 5828.35,951.421 5811,902.5C 5793.36,852.183 5784.86,800.35 5785.5,747C 5784.24,685.745 5795.4,626.912 5819,570.5C 5837.92,526.932 5866.42,491.098 5904.5,463C 5939.87,439.045 5978.87,426.211 6021.5,424.5 Z M 6014.5,508.5 C 6054.11,506.304 6086.61,520.304 6112,550.5C 6144.24,593.702 6162.58,642.368 6167,696.5C 6171.81,743.283 6169.14,789.617 6159,835.5C 6148.84,880.016 6127.67,918.183 6095.5,950C 6083.13,961.357 6068.79,969.357 6052.5,974C 6032.17,977.297 6011.84,977.297 5991.5,974C 5966.48,964.658 5945.65,949.492 5929,928.5C 5899.41,888.426 5882.41,843.426 5878,793.5C 5877.33,760.833 5877.33,728.167 5878,695.5C 5882.35,646.122 5898.01,600.789 5925,559.5C 5947.93,530.411 5977.76,513.411 6014.5,508.5 Z"/></g>
<g><path style="opacity:1" fill="#fefdfe" d="M 6786.5,424.5 C 6795.58,424.086 6804.58,424.586 6813.5,426C 6817.85,430.178 6820.01,435.345 6820,441.5C 6820.5,471.832 6820.67,502.165 6820.5,532.5C 6779.13,523.211 6744.3,534.211 6716,565.5C 6678.37,612.074 6662.71,665.407 6669,725.5C 6667.63,833.496 6666.8,941.496 6666.5,1049.5C 6637.17,1049.5 6607.83,1049.5 6578.5,1049.5C 6578.96,861.16 6578.12,672.826 6576,484.5C 6575.16,468.464 6574,452.464 6572.5,436.5C 6598.07,436.172 6623.57,436.505 6649,437.5C 6650,443.167 6651,448.833 6652,454.5C 6653.71,483.473 6654.71,512.473 6655,541.5C 6655.09,546.656 6655.92,551.656 6657.5,556.5C 6658.86,554.972 6660.03,553.305 6661,551.5C 6674.96,502.709 6703.13,464.542 6745.5,437C 6758.67,430.798 6772.33,426.631 6786.5,424.5 Z"/></g>
<g><path style="opacity:1" fill="#fefdfe" d="M 7499.5,695.5 C 7499.5,709.167 7499.5,722.833 7499.5,736.5C 7497.85,746.321 7496.52,756.321 7495.5,766.5C 7380.17,766.5 7264.83,766.5 7149.5,766.5C 7151.21,808.244 7160.38,848.244 7177,886.5C 7207.26,944.738 7255.43,974.738 7321.5,976.5C 7351.03,976.017 7380.03,971.85 7408.5,964C 7423.36,958.825 7438.19,953.658 7453,948.5C 7457.03,955.608 7459.7,963.275 7461,971.5C 7463.72,984.096 7466.05,996.762 7468,1009.5C 7468.84,1014.92 7468.51,1020.25 7467,1025.5C 7460.14,1030.51 7452.64,1034.35 7444.5,1037C 7391.67,1055.64 7337.34,1063.31 7281.5,1060C 7193.84,1048.11 7132.67,1001.61 7098,920.5C 7081.27,881.909 7071.6,841.575 7069,799.5C 7061.22,719.652 7072.55,642.652 7103,568.5C 7124.23,517.276 7158.39,477.11 7205.5,448C 7264.86,416.746 7324.2,416.746 7383.5,448C 7419.73,470.61 7446.56,501.444 7464,540.5C 7483.44,590.54 7495.27,642.207 7499.5,695.5 Z M 7279.5,504.5 C 7334.44,503.941 7372.6,528.941 7394,579.5C 7407.51,613.898 7413.35,649.565 7411.5,686.5C 7325.83,686.5 7240.17,686.5 7154.5,686.5C 7154.02,664.096 7157.85,642.429 7166,621.5C 7174.67,596.78 7186.01,573.447 7200,551.5C 7220.04,524.895 7246.54,509.229 7279.5,504.5 Z"/></g>
<g><path style="opacity:1" fill="#fefdfe" d="M 1001.5,433.5 C 1012.85,433.445 1024.18,433.778 1035.5,434.5C 1036.27,494.499 1036.94,554.499 1037.5,614.5C 1019.17,613.584 1000.84,613.417 982.5,614C 951.23,617.875 927.73,633.375 912,660.5C 905.728,672.711 899.728,685.044 894,697.5C 892.838,819.165 892.005,940.831 891.5,1062.5C 841.167,1062.5 790.833,1062.5 740.5,1062.5C 741.692,856.473 740.025,650.473 735.5,444.5C 778.833,444.5 822.167,444.5 865.5,444.5C 867.429,473.334 869.429,502.167 871.5,531C 871.899,539.045 873.232,546.879 875.5,554.5C 886.007,527.804 899.841,503.137 917,480.5C 930.177,464.316 946.01,451.483 964.5,442C 976.624,437.654 988.957,434.821 1001.5,433.5 Z"/></g>
<g><path style="opacity:1" fill="#fefdfe" d="M 2858.5,433.5 C 2908.1,432.222 2948.6,450.555 2980,488.5C 3009.14,527.214 3026.14,570.88 3031,619.5C 3033.77,645.427 3035.44,671.427 3036,697.5C 3037.39,819.162 3037.89,940.828 3037.5,1062.5C 2987.17,1062.5 2936.83,1062.5 2886.5,1062.5C 2886.67,975.166 2886.5,887.833 2886,800.5C 2886.18,758.054 2884.18,715.721 2880,673.5C 2877.44,651.135 2869.77,630.802 2857,612.5C 2834.1,587.266 2807.27,582.099 2776.5,597C 2763.71,604.787 2753.21,614.954 2745,627.5C 2738.57,638.786 2732.9,650.452 2728,662.5C 2726.29,795.821 2725.12,929.154 2724.5,1062.5C 2674.17,1062.5 2623.83,1062.5 2573.5,1062.5C 2573.67,930.166 2573.5,797.833 2573,665.5C 2572.11,591.819 2570.61,518.152 2568.5,444.5C 2611.84,444.167 2655.17,444.5 2698.5,445.5C 2702.78,465.581 2704.94,485.915 2705,506.5C 2705.79,514.919 2707.13,523.252 2709,531.5C 2727.6,499.894 2752.1,473.728 2782.5,453C 2806.53,440.811 2831.87,434.311 2858.5,433.5 Z"/></g>
<g><path style="opacity:1" fill="#fefdfe" d="M 4104.5,433.5 C 4209.29,429.618 4285.46,473.951 4333,566.5C 4365.28,633.906 4378.28,704.906 4372,779.5C 4368.95,832.025 4356.95,882.359 4336,930.5C 4290.16,1022.37 4215.66,1070.37 4112.5,1074.5C 4028.95,1071.65 3964.11,1035.65 3918,966.5C 3880.19,903.556 3861.36,835.223 3861.5,761.5C 3862.2,716.075 3868.37,671.408 3880,627.5C 3900.65,554.873 3943.15,499.04 4007.5,460C 4037.98,443.886 4070.32,435.053 4104.5,433.5 Z M 4111.5,570.5 C 4140.99,569.828 4164.16,581.495 4181,605.5C 4196.26,630.043 4205.93,656.71 4210,685.5C 4215.2,725.079 4215.87,764.745 4212,804.5C 4209.11,837.401 4199.45,868.068 4183,896.5C 4173.36,911.145 4160.86,922.645 4145.5,931C 4113.21,941.22 4085.71,934.054 4063,909.5C 4039.73,879.938 4026.73,846.271 4024,808.5C 4022.04,775.499 4022.04,742.499 4024,709.5C 4024.04,668.729 4036.04,632.063 4060,599.5C 4073.74,583.562 4090.91,573.896 4111.5,570.5 Z"/></g>
<g><path style="opacity:1" fill="#fefdfe" d="M 1319.5,444.5 C 1369.83,444.5 1420.17,444.5 1470.5,444.5C 1470.5,650.5 1470.5,856.5 1470.5,1062.5C 1420.17,1062.5 1369.83,1062.5 1319.5,1062.5C 1319.5,856.5 1319.5,650.5 1319.5,444.5 Z"/></g>
<g><path style="opacity:1" fill="#fefdfe" d="M 1790.5,444.5 C 1842.17,444.5 1893.83,444.5 1945.5,444.5C 1945.18,555.504 1945.68,666.504 1947,777.5C 1947.38,798.563 1948.71,819.563 1951,840.5C 1953.6,869.556 1966.44,892.723 1989.5,910C 2017.09,924.02 2042.43,920.687 2065.5,900C 2071.76,893.745 2077.26,886.912 2082,879.5C 2087.33,868.869 2092.66,858.202 2098,847.5C 2098.5,713.167 2098.67,578.834 2098.5,444.5C 2150.5,444.5 2202.5,444.5 2254.5,444.5C 2254.11,632.503 2254.61,820.503 2256,1008.5C 2256.41,1026.55 2257.58,1044.55 2259.5,1062.5C 2214.5,1062.5 2169.5,1062.5 2124.5,1062.5C 2123.51,1033.36 2121.01,1004.36 2117,975.5C 2113.19,979.131 2109.86,983.131 2107,987.5C 2080.99,1033.82 2041.83,1061.99 1989.5,1072C 1927.96,1081.62 1878.8,1061.79 1842,1012.5C 1818.9,977.568 1804.24,939.234 1798,897.5C 1795.93,885.917 1794.59,874.251 1794,862.5C 1792.27,814.849 1791.27,767.183 1791,719.5C 1790.5,627.834 1790.33,536.167 1790.5,444.5 Z"/></g>
</svg>
