<?xml version="1.0" encoding="UTF-8"?>
<!DOCTYPE svg PUBLIC "-//W3C//DTD SVG 1.1//EN" "http://www.w3.org/Graphics/SVG/1.1/DTD/svg11.dtd">
<svg xmlns="http://www.w3.org/2000/svg" version="1.1" width="733px" height="854px" style="shape-rendering:geometricPrecision; text-rendering:geometricPrecision; image-rendering:optimizeQuality; fill-rule:evenodd; clip-rule:evenodd" xmlns:xlink="http://www.w3.org/1999/xlink">
<g><path style="opacity:1" fill="#fefdfe" d="M 361.5,15.5 C 365.792,15.0349 369.792,15.8682 373.5,18C 377.422,21.2508 380.588,25.0841 383,29.5C 404.746,70.6591 426.746,111.659 449,152.5C 452.085,157.672 455.419,162.672 459,167.5C 464.333,172.167 469.667,176.833 475,181.5C 481.566,199.201 475.732,210.701 457.5,216C 439.304,218.418 428.304,210.751 424.5,193C 425.044,190.6 425.711,188.267 426.5,186C 423.805,175.918 420.305,166.085 416,156.5C 400.371,123.24 383.704,90.5733 366,58.5C 304.996,175.174 246.663,293.174 191,412.5C 187.686,419.108 186.019,426.108 186,433.5C 181.569,441.807 175.069,447.974 166.5,452C 161.833,454 157.167,454 152.5,452C 146.541,448.098 141.041,443.598 136,438.5C 129.934,422.784 134.768,411.618 150.5,405C 159.56,395.269 167.06,384.435 173,372.5C 224.178,272.811 274.845,172.811 325,72.5C 333.575,55.6782 342.908,39.3449 353,23.5C 355.729,20.6007 358.562,17.934 361.5,15.5 Z"/></g>
<g><path style="opacity:1" fill="#fefdfe" d="M 532.5,345.5 C 557.257,343.754 568.09,355.087 565,379.5C 567.723,387.278 570.723,394.945 574,402.5C 617.713,491.592 661.713,580.592 706,669.5C 713.663,685.157 720.496,701.157 726.5,717.5C 724.732,722.563 721.066,724.897 715.5,724.5C 709.391,723.912 703.391,722.745 697.5,721C 675.91,712.803 654.244,704.803 632.5,697C 627.162,695.665 621.829,694.331 616.5,693C 606.754,692.185 597.087,690.852 587.5,689C 573.624,681.697 570.124,670.864 577,656.5C 584.436,646.685 594.269,643.185 606.5,646C 612.785,647.97 617.785,651.637 621.5,657C 639.477,669.571 658.977,679.071 680,685.5C 680.167,684.833 680.333,684.167 680.5,683.5C 634.033,584.895 584.2,488.228 531,393.5C 518.571,387.299 512.238,377.299 512,363.5C 516.256,354.402 523.089,348.402 532.5,345.5 Z"/></g>
<g><path style="opacity:1" fill="#fefdfe" d="M 360.5,565.5 C 366.595,566.127 372.595,567.294 378.5,569C 393.848,575.403 409.848,578.736 426.5,579C 442.527,583.536 448.361,594.036 444,610.5C 442.938,616.562 439.438,620.395 433.5,622C 422.346,625.986 411.679,624.986 401.5,619C 393.513,604.839 381.513,596.339 365.5,593.5C 348.029,597.49 331.029,602.99 314.5,610C 230.279,643.61 145.945,676.944 61.5,710C 47.364,715.268 33.0307,719.934 18.5,724C 10.4474,726.831 6.11408,724.164 5.5,716C 5.76177,713.453 6.26177,710.953 7,708.5C 13.1146,692.271 19.7813,676.271 27,660.5C 30.9465,648.765 33.6132,636.765 35,624.5C 35.8333,621 38,618.833 41.5,618C 53.2935,614.467 64.9602,614.8 76.5,619C 79.4668,621.1 81.3002,623.934 82,627.5C 84.2983,640.27 80.7983,651.104 71.5,660C 68.7536,661.75 65.7536,662.75 62.5,663C 55.9547,668.927 52.2881,676.094 51.5,684.5C 123.39,656.888 195.057,628.721 266.5,600C 297.615,587.596 328.948,576.096 360.5,565.5 Z"/></g>
</svg>
